ply
format ascii 1.0
comment Created by CloudCompare v2.13.2 (Kharkiv - Jul  6 2024)
comment Created 2025-01-09T10:37:16
obj_info Generated by CloudCompare!
element vertex 165
property float x
property float y
property float z
element face 294
property list uchar int vertex_indices
end_header
5.625266 0.479862 138.725037 
4.062654 0.055122 137.404892 
5.759721 -1.191950 137.960480 
-1.072191 5.387552 138.819016 
-0.546659 1.573965 137.338394 
0.583437 2.994226 137.509903 
1.765080 3.777473 138.104477 
1.824474 1.221336 137.117035 
2.244709 2.690819 137.657150 
3.761954 1.745304 137.892563 
6.866190 -1.117809 139.119339 
0.430738 4.563568 138.319717 
-2.326562 1.759487 137.995514 
-1.397272 3.577219 137.908997 
3.517238 3.374426 138.812027 
4.990048 2.112070 139.118256 
8.107622 -2.019672 140.233414 
-4.437919 3.885658 139.581573 
-3.046846 3.182768 138.440277 
-2.787240 4.710083 138.769623 
-0.933333 6.674221 140.125015 
-3.858356 1.966326 139.020294 
0.664526 5.924898 139.634369 
2.384366 5.933990 140.873901 
2.184093 4.835878 139.222931 
7.113127 -0.199858 140.439301 
6.184804 1.599161 140.465210 
-2.265984 6.000919 139.486206 
-2.587380 6.962561 140.644775 
3.874336 4.567261 140.528946 
5.146850 3.144394 140.430084 
7.203720 1.059246 142.407059 
8.169090 -1.055092 142.086349 
-4.334872 6.768177 141.448044 
-3.721500 5.717667 139.891937 
-5.443644 2.041964 140.755264 
-1.296267 7.537956 141.343506 
0.501347 7.184349 141.409790 
-1.059829 8.151909 142.626541 
5.152026 4.033123 141.800781 
4.223854 5.327005 142.497833 
5.826729 3.862362 143.234558 
6.163744 2.784176 142.028992 
8.854502 -1.771532 143.800659 
-5.800219 3.895010 141.262939 
-5.779480 5.464014 142.083313 
-4.995245 5.204105 140.668900 
4.100190 6.161682 144.356064 
6.744138 2.538456 143.452545 
-6.570991 3.945549 143.012207 
-5.343005 6.939785 143.145432 
-4.069172 7.783951 142.845749 
-2.749092 7.827288 142.042969 
1.101366 8.314112 145.038544 
0.778553 7.965456 143.410645 
2.443102 6.833815 142.756516 
5.482665 4.761246 144.486053 
6.689975 3.076689 144.901306 
7.325437 1.621614 144.163559 
9.460455 -2.665413 145.559723 
-6.401618 2.688446 142.355164 
0.475164 8.724367 146.023193 
2.552845 7.448896 144.708817 
4.069518 6.585033 146.370483 
5.177218 5.420902 145.907593 
6.088912 4.230921 146.419342 
7.564224 1.292055 145.616455 
6.907098 2.608316 146.974716 
-6.936985 2.354481 143.994873 
-6.423509 5.454664 143.875961 
-2.783200 8.455296 143.507889 
7.609111 0.719458 147.552719 
-4.444396 8.143909 144.422791 
-5.895015 6.914194 144.938370 
-5.086240 7.961391 146.193878 
-2.754701 8.874460 145.162628 
2.308775 7.944998 146.750122 
3.786889 6.682541 148.537308 
5.113005 5.352245 148.027405 
9.076502 -2.422529 147.757767 
-7.052873 3.739750 144.885345 
-6.816562 5.238127 145.769913 
-1.049672 9.075983 146.337097 
2.311895 7.741470 148.996033 
6.858479 0.303389 150.560501 
8.227409 -0.954227 148.145966 
-7.304685 3.317432 146.837418 
-6.208185 6.642673 146.791397 
-3.880086 8.648561 145.983109 
-2.604068 9.040257 146.934067 
-3.941136 8.614204 147.467758 
-0.914872 9.029415 148.214203 
0.691310 8.718838 147.609543 
3.199333 6.440022 150.511047 
4.290625 5.553665 149.996613 
6.028309 3.742491 148.466263 
5.014960 4.410540 150.100220 
6.036439 1.637997 150.913574 
5.752186 3.097410 150.041672 
6.712344 1.825951 149.129761 
7.567023 -0.280380 149.437775 
7.472279 -1.417427 151.112656 
8.417274 -2.156342 149.713455 
-7.331260 2.794340 148.830826 
-6.979922 4.852526 147.721100 
-5.226214 7.718294 147.940704 
0.770521 8.383144 149.545105 
-6.259602 6.233858 148.723480 
-5.123292 7.273956 149.841812 
-3.619915 7.718876 151.138504 
-3.848127 8.348265 149.222839 
-2.420611 8.889647 148.772110 
1.996687 7.345074 150.626404 
5.436795 1.256207 152.344101 
-6.914028 4.285131 149.764099 
3.643803 4.798986 151.899643 
-6.638471 3.564959 151.860825 
-7.176264 2.268015 150.795670 
-4.794867 6.497612 151.916412 
-0.727132 8.543869 150.215714 
-2.204188 8.342337 150.698334 
0.862830 7.566719 151.390472 
2.194835 6.360092 151.945404 
1.015007 6.562309 152.751266 
2.822910 3.660610 153.846237 
4.519567 -0.183180 154.945023 
5.797469 -0.795790 153.621841 
4.782570 0.947414 153.585129 
-6.057241 5.594986 150.837723 
1.917679 5.307182 153.352249 
0.288287 5.872883 153.940094 
3.479017 1.682819 154.663101 
-6.327207 2.505930 153.843918 
-5.560467 4.597630 153.254837 
-3.310775 6.721292 153.023697 
-4.312040 5.637018 153.674484 
-2.186953 7.490198 152.346008 
-0.580060 7.462212 152.323166 
3.303921 -0.039566 156.402634 
-1.680034 6.267216 154.038757 
0.219871 2.898951 156.728027 
-0.589428 4.654261 155.500778 
1.228246 4.069340 154.988464 
2.233794 -0.301657 158.015335 
1.070396 1.042480 157.865036 
2.288415 1.299440 156.367523 
-2.450119 4.679884 155.670044 
-1.489565 3.310125 157.011734 
-4.522574 2.671043 156.654144 
-2.376734 1.105373 159.345993 
8.396879 -0.757948 146.051117 
5.018974 3.084322 151.428986 
4.246435 2.640839 152.938263 
1.432978 2.439798 156.224762 
2.250850 2.729879 155.179764 
-3.227979 5.587563 154.489334 
-4.249598 4.283010 155.236847 
-0.741908 1.628784 158.495316 
-3.851069 1.632484 158.214523 
-2.359957 2.260963 158.094421 
-3.247604 3.208782 156.922272 
7.967200 0.048866 144.028519 
-0.842741 8.743744 144.487137 
6.473653 -0.236803 151.913147 
-5.429892 2.842566 155.358765 
3 9 7 8 
3 1 7 9 
3 0 1 9 
3 2 1 0 
3 11 13 3 
3 4 13 5 
3 11 6 5 
3 13 11 5 
3 6 11 24 
3 7 4 5 
3 7 5 8 
3 6 14 8 
3 6 8 5 
3 14 6 24 
3 9 8 14 
3 9 14 15 
3 0 9 15 
3 2 0 10 
3 19 13 18 
3 13 19 3 
3 22 3 20 
3 11 3 22 
3 13 4 12 
3 13 12 18 
3 24 11 22 
3 14 24 29 
3 15 14 30 
3 30 14 29 
3 30 26 15 
3 15 26 0 
3 10 0 25 
3 25 0 26 
3 10 25 16 
3 34 19 17 
3 27 19 34 
3 21 17 18 
3 18 17 19 
3 3 19 27 
3 20 3 27 
3 20 37 22 
3 12 21 18 
3 22 37 23 
3 24 22 23 
3 24 23 29 
3 25 26 31 
3 16 25 32 
3 32 25 31 
3 27 34 28 
3 20 27 28 
3 36 20 28 
3 20 36 37 
3 29 23 40 
3 29 40 39 
3 30 29 39 
3 30 39 42 
3 26 30 42 
3 31 26 42 
3 33 46 45 
3 35 17 21 
3 44 17 35 
3 17 44 46 
3 17 46 34 
3 34 46 33 
3 28 34 33 
3 52 36 28 
3 36 38 37 
3 54 37 38 
3 23 37 55 
3 55 37 54 
3 40 23 55 
3 39 40 41 
3 42 39 41 
3 42 41 48 
3 31 42 48 
3 32 31 161 
3 161 43 32 
3 44 45 46 
3 28 33 52 
3 52 38 36 
3 40 55 47 
3 40 47 56 
3 41 40 56 
3 48 41 57 
3 57 41 56 
3 31 48 58 
3 44 49 45 
3 60 49 44 
3 33 45 50 
3 33 50 51 
3 52 33 51 
3 70 52 51 
3 35 60 44 
3 70 38 52 
3 162 38 70 
3 54 53 62 
3 55 54 62 
3 55 62 47 
3 56 47 64 
3 56 64 65 
3 57 56 65 
3 58 48 57 
3 58 57 66 
3 150 161 66 
3 150 59 43 
3 79 59 150 
3 68 49 60 
3 45 49 69 
3 45 69 50 
3 51 50 72 
3 72 70 51 
3 75 70 72 
3 53 162 61 
3 76 62 53 
3 47 62 63 
3 63 62 76 
3 64 47 63 
3 65 64 78 
3 67 66 57 
3 67 57 65 
3 150 66 71 
3 71 66 67 
3 80 49 68 
3 49 80 69 
3 50 69 73 
3 50 73 72 
3 75 82 162 
3 70 75 162 
3 162 82 61 
3 64 63 78 
3 95 65 78 
3 95 67 65 
3 85 150 71 
3 150 85 79 
3 69 80 81 
3 69 81 73 
3 72 73 74 
3 72 74 88 
3 75 72 88 
3 89 75 88 
3 75 89 82 
3 61 92 76 
3 63 76 77 
3 63 77 78 
3 99 67 95 
3 85 71 100 
3 99 71 67 
3 100 71 99 
3 79 85 102 
3 80 86 81 
3 73 81 87 
3 73 87 74 
3 82 89 91 
3 92 82 91 
3 76 92 83 
3 76 83 77 
3 98 99 95 
3 84 100 99 
3 85 100 102 
3 81 86 104 
3 81 104 87 
3 74 87 105 
3 74 105 90 
3 88 74 90 
3 90 89 88 
3 111 89 90 
3 89 111 91 
3 82 92 61 
3 106 92 91 
3 92 106 83 
3 77 83 93 
3 96 78 94 
3 98 95 96 
3 97 99 98 
3 97 84 99 
3 100 84 101 
3 102 100 101 
3 86 103 104 
3 87 104 107 
3 87 107 105 
3 90 105 110 
3 110 111 90 
3 119 91 111 
3 119 106 91 
3 83 106 112 
3 83 112 93 
3 151 98 96 
3 97 98 151 
3 104 103 114 
3 104 114 107 
3 105 107 108 
3 110 105 108 
3 109 110 108 
3 110 120 111 
3 109 120 110 
3 119 111 120 
3 121 106 119 
3 106 121 112 
3 113 97 151 
3 113 151 152 
3 126 163 113 
3 103 117 114 
3 107 114 128 
3 107 128 108 
3 112 121 122 
3 93 112 122 
3 122 115 93 
3 113 152 127 
3 127 126 113 
3 116 114 117 
3 114 116 128 
3 118 108 128 
3 109 108 118 
3 136 120 109 
3 137 119 120 
3 137 120 136 
3 137 121 119 
3 123 121 137 
3 122 121 123 
3 129 122 123 
3 124 115 129 
3 115 122 129 
3 131 152 124 
3 127 152 131 
3 125 127 131 
3 126 127 125 
3 128 116 133 
3 118 128 133 
3 109 118 134 
3 134 136 109 
3 130 123 137 
3 142 129 130 
3 129 123 130 
3 131 124 154 
3 116 132 133 
3 118 133 135 
3 134 118 135 
3 139 137 136 
3 134 139 136 
3 155 139 134 
3 137 139 130 
3 145 131 154 
3 138 131 145 
3 125 131 138 
3 155 134 135 
3 139 155 146 
3 141 139 146 
3 130 139 141 
3 142 141 140 
3 142 130 141 
3 140 153 142 
3 153 145 154 
3 133 132 164 
3 135 133 156 
3 156 155 135 
3 141 146 147 
3 141 147 140 
3 153 140 144 
3 143 138 145 
3 144 145 153 
3 143 145 144 
3 156 164 148 
3 156 148 160 
3 160 146 156 
3 160 147 146 
3 157 147 159 
3 140 147 157 
3 144 140 157 
3 160 148 158 
3 158 149 159 
3 161 150 43 
3 53 61 76 
3 96 95 78 
3 163 84 97 
3 113 163 97 
3 152 151 115 
3 115 124 152 
3 153 154 142 
3 146 155 156 
3 147 160 159 
3 157 159 149 
3 158 159 160 
3 161 31 58 
3 161 58 66 
3 54 162 53 
3 54 38 162 
3 77 94 78 
3 94 77 93 
3 94 115 96 
3 115 94 93 
3 151 96 115 
3 101 84 163 
3 124 129 142 
3 154 124 142 
3 156 133 164 
