ply
format ascii 1.0
comment Created by CloudCompare v2.13.2 (Kharkiv - Jul  6 2024)
comment Created 2024-11-28T10:33:36
obj_info Generated by CloudCompare!
element vertex 412
property float x
property float y
property float z
element face 737
property list uchar int vertex_indices
end_header
6.848725 -8.334784 127.945938 
5.729437 -7.864351 128.071548 
7.372722 -9.563462 127.755936 
8.598232 -8.128880 128.286652 
10.729404 -8.435197 128.753326 
9.501234 -9.688604 128.134857 
12.717705 -8.859954 129.526367 
3.849559 -7.965698 128.061996 
2.690748 -9.523065 127.751022 
5.134468 -9.303253 127.648819 
8.126793 -11.120949 127.932129 
10.112768 -11.298846 128.453598 
11.515463 -10.043865 128.788498 
13.635937 -7.923820 130.784607 
2.542160 -12.420780 128.133820 
3.656760 -11.021570 127.691269 
1.602398 -10.961089 128.017807 
6.966033 -14.945129 129.266602 
6.851608 -12.877977 128.238312 
8.563231 -13.976734 129.035202 
8.834883 -12.432646 128.413742 
10.236526 -13.011895 129.049011 
15.391172 -8.483202 131.978149 
11.844151 -11.850976 129.227417 
13.343122 -10.585451 129.697296 
14.562469 -9.416647 130.609818 
-1.011367 -9.638740 129.014038 
0.193304 -8.528951 128.606964 
0.697574 -9.596155 128.186066 
0.960694 -12.159718 128.448669 
-0.104617 -11.017883 128.573425 
10.074858 -14.747578 129.893372 
8.531691 -15.744287 130.077026 
11.766731 -13.697639 129.954239 
13.476465 -12.441049 130.268936 
14.930950 -12.985848 131.615265 
15.028803 -11.140822 130.957321 
16.192183 -9.971217 132.100037 
16.428528 -11.763280 132.606812 
-1.418323 -11.310676 129.257233 
-0.268824 -12.832641 129.166046 
0.886096 -14.695524 129.692703 
2.620367 -15.273584 129.544647 
1.624618 -13.584582 128.784851 
3.422917 -13.995943 128.639786 
5.269979 -14.285367 128.727188 
16.679501 -8.943760 133.343262 
14.414446 -14.902475 132.560806 
13.234091 -14.265206 131.105850 
17.508877 -10.331976 134.231033 
-2.159375 -9.026677 130.248810 
-3.646998 -9.973575 131.344238 
-2.877889 -8.602422 131.492142 
-0.786428 -14.399627 130.314590 
0.406534 -15.613379 130.670334 
1.863357 -16.270142 130.589142 
4.313387 -15.662500 129.571152 
5.212011 -17.355310 130.694794 
7.034835 -16.996197 130.589569 
8.926727 -17.232410 131.215668 
10.771908 -17.209999 131.975342 
9.968920 -16.150158 130.807297 
15.888260 -7.762210 133.755737 
17.201056 -8.453161 135.228821 
11.480019 -15.421995 130.926361 
15.982208 -13.743768 133.294540 
-2.523416 -10.718000 129.992447 
-2.267487 -14.535615 131.498596 
3.525372 -17.031235 130.668991 
8.006113 -18.624676 131.768173 
9.050730 -19.474535 132.566071 
9.422056 -18.338375 132.110260 
12.103216 -17.989679 133.407974 
12.713661 -16.107269 132.228485 
13.673140 -16.843363 133.715240 
16.618540 -14.646663 135.236130 
17.337124 -12.577399 134.522614 
-3.704697 -8.827287 132.399048 
-3.361267 -13.379961 131.526062 
-0.784724 -15.799734 131.563751 
0.830366 -16.843840 131.588593 
7.840325 -20.486086 132.550674 
6.095798 -20.670181 132.329117 
10.482504 -18.983740 133.031464 
11.797428 -20.074242 134.439514 
13.052324 -18.532545 134.647827 
14.280096 -17.718351 135.336304 
15.192656 -15.755783 134.285675 
15.646059 -16.586550 136.216156 
-3.631759 -11.853842 131.137939 
-2.110260 -15.982779 132.846375 
-0.444067 -17.452837 132.691055 
0.611090 -19.297970 132.884995 
1.180198 -18.152702 132.285187 
3.272032 -21.304592 132.482391 
2.426435 -17.877960 131.649994 
2.340894 -22.888556 132.577469 
1.331663 -30.622288 131.698685 
2.250875 -26.685127 131.972092 
2.739945 -28.942551 131.679703 
5.634383 -27.418671 131.978699 
7.156953 -22.349098 132.688583 
8.379065 -24.305403 132.814438 
9.841169 -20.677601 133.391159 
3.549245 -31.052193 131.571564 
4.545293 -29.374922 131.697510 
7.610485 -28.859789 132.092697 
9.575861 -26.242880 132.921265 
10.213787 -24.348993 133.467026 
9.055973 -22.443573 133.211548 
11.128656 -22.460489 134.268005 
11.813225 -24.634911 134.402878 
18.284071 -11.335171 136.268692 
17.848450 -13.423392 136.604370 
18.604343 -10.254965 137.939255 
18.140991 -9.398168 136.709457 
6.186528 -29.724060 131.786453 
7.555553 -31.083500 132.008713 
14.682978 -18.506039 137.129303 
16.927792 -15.366640 137.349655 
17.997889 -13.939745 138.771591 
18.619505 -11.927706 138.240112 
10.929800 -28.034662 133.388565 
-4.703092 -11.243526 132.466217 
-4.613830 -9.641892 133.058380 
-5.147830 -12.491403 133.631409 
-4.309159 -12.757311 132.269989 
-3.807781 -14.420249 133.185043 
-0.774732 -19.045176 133.661682 
-0.038989 -20.817900 133.512466 
1.497808 -21.049349 132.832550 
0.563789 -22.917273 133.188995 
-2.330728 -30.043217 132.591217 
1.634561 -24.669317 132.453979 
0.387745 -24.902445 132.879898 
-2.307832 -31.681316 132.451233 
-0.772122 -31.225285 132.046844 
1.131152 -28.354794 131.840057 
-0.127203 -27.724930 132.310242 
0.871134 -26.442791 132.292862 
2.615065 -32.618439 131.711212 
12.745462 -21.858845 135.724548 
12.575041 -23.479809 135.383453 
13.456028 -19.875755 136.057465 
6.843145 -32.890110 131.968887 
4.688363 -32.830700 131.689774 
11.047146 -26.012222 133.631821 
13.254593 -25.212645 135.750275 
9.646830 -30.163437 132.705917 
11.540607 -29.912975 133.685333 
12.678022 -30.534462 134.625320 
13.813301 -29.732777 135.972122 
-5.493239 -10.718451 134.149643 
-5.133603 -13.822674 135.054947 
-4.094512 -15.526405 135.223663 
-3.049056 -16.152201 134.189911 
-1.996903 -20.498001 135.435974 
-1.904678 -17.463345 133.977966 
-0.771534 -24.309597 133.815948 
17.311651 -7.885822 137.610580 
18.603025 -11.996428 140.482147 
13.723419 -21.663645 137.083481 
14.226660 -20.401484 137.912003 
9.298595 -32.975273 132.780289 
12.389544 -26.665680 134.562286 
14.419981 -25.869322 137.442688 
13.764109 -27.414406 136.008011 
11.658079 -33.569313 134.101410 
12.700260 -28.768299 134.666595 
-1.895329 -18.970999 134.812119 
-3.076982 -17.380112 135.551315 
-1.094367 -22.137728 134.485306 
-4.005148 -31.329781 133.186005 
-0.539514 -26.226290 133.025925 
18.258152 -8.917266 138.910431 
18.258032 -9.374000 141.027023 
18.704615 -10.325659 139.422745 
14.347504 -22.187269 138.603882 
14.565157 -20.728928 139.499344 
-6.012346 -10.329449 136.053757 
-5.939341 -12.013299 135.402512 
-4.955999 -14.896044 136.469116 
-4.217869 -16.390093 136.986389 
-2.694458 -19.081951 136.049744 
-2.099338 -23.817421 135.235580 
-5.531957 -30.427006 134.388535 
-3.853715 -29.171000 133.698761 
-1.850992 -27.932135 133.095993 
-3.501462 -27.233311 134.672470 
18.366631 -11.062881 142.307175 
15.825834 -17.172503 138.267776 
16.919203 -15.781894 139.506165 
17.799376 -14.243039 140.902557 
15.060230 -26.766575 138.949493 
14.636803 -28.287251 137.473404 
13.259483 -34.305923 135.599609 
14.413233 -33.004150 137.253311 
15.097071 -31.501736 139.009674 
-3.231536 -23.557568 136.960648 
-2.431925 -22.002699 136.176773 
-3.383233 -21.766766 138.071869 
-6.702448 -30.129070 135.822815 
-5.189222 -28.653469 135.188232 
15.758890 -17.571201 140.354752 
14.912703 -19.035336 139.072159 
14.899599 -19.795998 141.095184 
15.483484 -17.787516 142.385269 
16.666414 -15.964767 141.629517 
14.817747 -24.268599 139.279129 
15.106871 -29.141127 138.839005 
-6.334485 -10.200748 138.272964 
-6.368473 -11.604704 137.070984 
-6.414114 -12.099167 138.852707 
-5.870308 -13.393903 137.095551 
-5.132280 -15.203833 138.199875 
-3.529619 -18.307190 137.354034 
-4.352206 -17.138584 138.904892 
-3.754368 -19.586710 139.173065 
-7.905252 -30.445066 137.609863 
-6.322214 -28.567389 136.859955 
18.184273 -12.785503 142.195251 
16.171829 -15.957483 143.637436 
15.299734 -31.993252 141.345078 
15.101715 -33.684986 139.259720 
-2.965597 -20.242979 137.052353 
-4.733054 -26.944117 136.331635 
-4.323910 -25.247383 137.583694 
14.750572 -22.096046 140.469025 
15.228350 -25.881662 140.608749 
15.341969 -29.698044 140.459930 
15.303366 -27.738377 140.032120 
15.251421 -29.766018 142.358353 
-6.501003 -10.700692 140.394608 
-6.254532 -12.479011 140.924591 
-5.883127 -13.827309 139.437927 
-5.096907 -15.627846 140.479294 
-4.272142 -17.832397 140.846542 
-4.070753 -23.513123 138.822464 
16.927589 -9.752726 144.891251 
16.727554 -13.997426 144.805664 
15.009830 -23.883259 141.421173 
14.753721 -21.871334 142.262421 
14.772984 -23.918509 143.152405 
15.057085 -27.834972 143.238205 
15.324736 -27.730392 141.497803 
-6.301714 -10.980476 142.383392 
-3.933811 -21.711304 140.081970 
-5.679099 -27.004723 138.083679 
-7.153751 -28.753460 138.703659 
-5.075399 -25.382113 139.378616 
14.659849 -19.816275 143.149643 
14.858362 -17.818729 144.230850 
14.674875 -25.967144 144.103622 
15.125557 -25.796339 142.361160 
14.911697 -31.230789 143.737518 
15.335194 -34.273792 141.518997 
-5.733690 -13.998037 141.280502 
-3.868895 -19.894360 141.445450 
-6.314900 -27.278120 139.909393 
15.759283 -12.221548 146.899872 
16.756504 -11.943922 145.713593 
14.313707 -21.930925 143.944305 
13.725449 -17.679722 145.832245 
15.306101 -15.890646 145.372391 
15.739775 -13.930490 146.319275 
-5.677381 -13.125649 142.940948 
-5.080308 -15.073132 142.417236 
-3.891715 -18.160143 142.654602 
-4.560872 -16.623709 142.031235 
-4.588252 -23.653492 140.683823 
-4.834159 -24.044680 142.533798 
-4.074083 -21.935133 142.036850 
14.488155 -13.590222 147.513962 
14.609688 -11.549018 147.862976 
13.342432 -21.793568 145.546173 
13.869749 -19.805182 144.842407 
14.123192 -23.983519 144.828842 
12.990545 -23.584072 146.391342 
14.247276 -32.304363 145.345840 
14.858946 -29.503796 144.037521 
14.981539 -33.075905 143.418259 
-4.673303 -14.766819 143.847672 
-3.118714 -17.944065 144.325897 
-3.266911 -15.568657 145.245575 
-4.135458 -16.410236 143.477356 
-3.386097 -20.130592 143.541962 
-7.667299 -29.115376 140.626755 
14.029575 -9.570929 147.987244 
12.757174 -9.225627 149.203293 
13.155359 -10.938440 149.099075 
14.048470 -15.620466 146.776886 
12.581577 -14.992035 147.964905 
11.818119 -21.256107 146.879196 
12.503351 -19.467794 146.307907 
14.120993 -30.096653 145.738205 
14.439001 -27.997341 145.031357 
-4.811414 -13.371790 144.765961 
-5.887920 -26.178749 143.117355 
-4.764303 -24.742144 144.386322 
-3.867183 -22.529417 143.884094 
-7.171406 -28.105789 143.822647 
12.209585 -17.168928 147.123459 
13.079679 -12.916882 148.688751 
12.574036 -24.797775 147.267990 
-3.888851 -13.393610 146.011124 
-4.986599 -11.718762 145.778061 
-3.740904 -11.864893 147.206665 
-1.868890 -17.912998 145.772278 
-1.257880 -16.201731 146.662689 
-5.909899 -26.826231 145.103302 
-3.326437 -23.444010 145.523453 
-2.667833 -21.288063 145.165085 
-2.394191 -19.436827 145.062759 
9.307262 -18.015060 148.357147 
10.015707 -20.587667 147.827759 
10.844177 -18.787598 147.420258 
10.731337 -16.401554 148.195877 
11.424788 -22.983301 147.586304 
13.499838 -28.117474 146.807098 
12.109444 -32.319618 148.172791 
13.105047 -29.626463 147.440933 
-2.376672 -14.085765 146.840912 
-4.262473 -25.573151 146.126282 
-2.009180 -22.301115 146.332443 
8.359617 -19.892670 148.639450 
11.302799 -14.239665 149.186066 
11.856169 -12.203879 150.065536 
11.351992 -24.794064 148.288269 
11.311649 -26.660282 148.973511 
12.368404 -28.286324 148.305252 
13.218666 -31.426483 147.083160 
12.106171 -30.176336 148.516083 
0.439075 -16.841665 147.726822 
-0.435086 -14.672685 147.902298 
-1.305520 -20.230446 146.342270 
-0.734013 -22.208963 147.346039 
-0.392832 -18.333920 146.942825 
1.648046 -18.053692 148.652145 
9.579584 -15.723198 149.433395 
10.102228 -25.050364 149.233551 
10.560034 -30.904142 149.815384 
11.096159 -28.565830 149.511398 
11.020060 -33.059586 148.981812 
-3.023797 -10.791840 148.733795 
-1.695195 -12.637578 148.296005 
-1.280221 -11.376442 149.911819 
0.170901 -13.233078 149.526398 
-2.242589 -24.257896 147.126389 
-3.535496 -26.182396 147.478210 
-0.336841 -23.782963 148.361649 
0.725433 -22.004175 148.369110 
1.436493 -20.190182 148.489243 
0.197602 -20.325470 147.529343 
0.793744 -18.750751 147.778488 
1.337723 -15.581928 149.263947 
2.199801 -19.754774 149.658875 
7.240301 -19.515804 149.549438 
7.982800 -17.523104 149.709000 
-5.183132 -28.455517 149.188736 
-5.449729 -27.541676 147.197540 
-3.811700 -27.249044 148.450104 
-1.857041 -25.910727 148.715134 
7.665434 -21.628805 149.459427 
9.816587 -26.739216 150.195129 
8.489433 -24.223742 150.068665 
10.044935 -28.739929 150.514328 
1.003186 -23.247427 149.134354 
1.571310 -23.527288 150.103714 
1.794849 -21.840027 149.356186 
-4.528142 -28.790470 150.715042 
-3.140175 -27.737720 149.850052 
3.752263 -27.108244 131.916031 
3.077762 -24.894274 132.210922 
4.377807 -25.460283 132.141129 
5.580731 -31.286812 131.662918 
7.517834 -26.285894 132.354202 
9.080847 -28.004225 132.552536 
9.505816 -22.746439 148.618546 
1.709061 -8.336744 128.159424 
5.753036 -15.850885 129.683762 
-2.190577 -12.751904 130.232162 
2.254547 -19.471111 132.401276 
3.966672 -23.457731 132.376221 
5.554427 -24.778095 132.286911 
6.725320 -23.989746 132.512817 
-1.104508 -20.352842 134.314774 
-0.472334 -29.339043 132.079727 
13.268229 -32.063347 135.425537 
-1.987436 -25.789442 134.253448 
-3.287792 -25.351833 135.838547 
13.804592 -23.529648 137.037125 
14.547823 -30.748425 137.323807 
17.747801 -11.874413 143.886292 
17.692863 -9.444062 143.138748 
15.719749 -10.120531 146.582520 
-5.577950 -25.680019 141.190903 
-6.772019 -27.696648 141.817276 
-5.785817 -11.390995 144.239243 
12.605736 -26.477982 147.706268 
13.727152 -25.945009 146.043091 
13.590286 -33.819592 146.501694 
-1.069641 -26.786184 150.505127 
0.227305 -24.860550 149.572220 
4.527544 -12.621936 127.989075 
5.895789 -11.089797 127.666824 
6.332583 -18.948593 131.674744 
4.303331 -19.358549 131.893875 
5.249494 -22.213085 132.440033 
11.411625 -31.638798 133.714554 
17.392130 -14.216327 142.923004 
2.148029 -17.576902 149.961197 
9.543108 -33.097240 150.130325 
3 0 9 1 
3 9 0 2 
3 3 2 0 
3 10 2 5 
3 3 4 5 
3 2 3 5 
3 10 5 11 
3 5 4 12 
3 11 5 12 
3 12 4 6 
3 7 8 378 
3 8 7 9 
3 8 9 15 
3 1 9 7 
3 403 15 404 
3 18 404 10 
3 18 10 20 
3 11 21 20 
3 11 20 10 
3 21 11 23 
3 12 24 23 
3 11 12 23 
3 24 12 6 
3 25 6 13 
3 24 6 25 
3 16 28 8 
3 14 29 16 
3 15 16 8 
3 45 44 403 
3 403 14 15 
3 19 17 18 
3 18 17 45 
3 18 20 19 
3 19 20 21 
3 31 19 21 
3 25 13 22 
3 31 21 33 
3 33 23 34 
3 21 23 33 
3 34 24 36 
3 23 24 34 
3 25 37 36 
3 24 25 36 
3 37 25 22 
3 26 28 30 
3 16 29 30 
3 16 30 28 
3 29 14 43 
3 43 14 44 
3 17 379 45 
3 58 17 32 
3 31 32 19 
3 19 32 17 
3 32 31 61 
3 31 64 61 
3 31 33 64 
3 33 34 48 
3 33 48 64 
3 34 36 35 
3 34 35 48 
3 35 36 38 
3 38 37 49 
3 36 37 38 
3 66 50 26 
3 26 30 39 
3 26 39 66 
3 40 380 39 
3 53 380 40 
3 40 39 30 
3 40 30 29 
3 41 53 40 
3 43 40 29 
3 41 40 43 
3 42 41 43 
3 42 43 44 
3 56 42 44 
3 45 56 44 
3 17 58 379 
3 58 32 59 
3 32 61 59 
3 22 62 46 
3 37 22 46 
3 48 47 73 
3 64 48 73 
3 35 65 47 
3 48 35 47 
3 35 38 65 
3 46 49 37 
3 51 52 50 
3 66 51 50 
3 39 380 66 
3 53 41 54 
3 41 42 55 
3 54 41 55 
3 42 56 68 
3 55 42 68 
3 57 68 56 
3 379 57 56 
3 58 57 379 
3 58 59 69 
3 59 61 60 
3 59 60 71 
3 64 60 61 
3 46 62 63 
3 73 60 64 
3 65 38 76 
3 38 49 76 
3 46 63 49 
3 74 47 87 
3 73 47 74 
3 47 65 87 
3 76 49 112 
3 51 66 89 
3 67 380 53 
3 55 68 95 
3 80 55 95 
3 68 57 406 
3 95 68 406 
3 57 58 405 
3 406 57 405 
3 81 405 69 
3 70 81 69 
3 69 59 71 
3 69 71 70 
3 70 71 83 
3 60 72 83 
3 71 60 83 
3 72 60 73 
3 49 63 115 
3 72 73 74 
3 65 75 87 
3 76 113 75 
3 65 76 75 
3 76 112 113 
3 115 112 49 
3 124 51 123 
3 51 124 77 
3 52 51 77 
3 123 51 89 
3 67 78 380 
3 79 67 53 
3 79 53 54 
3 80 91 79 
3 93 91 80 
3 80 79 54 
3 95 93 80 
3 55 80 54 
3 82 406 405 
3 81 101 82 
3 81 82 405 
3 103 81 70 
3 83 84 103 
3 70 83 103 
3 83 72 84 
3 115 63 159 
3 84 72 85 
3 74 86 85 
3 72 74 85 
3 87 88 86 
3 74 87 86 
3 87 75 88 
3 123 89 126 
3 127 78 67 
3 126 78 127 
3 126 89 78 
3 67 79 90 
3 127 67 90 
3 90 79 91 
3 91 93 92 
3 381 92 93 
3 381 93 95 
3 381 94 130 
3 406 381 95 
3 133 98 139 
3 372 98 133 
3 96 382 372 
3 133 96 372 
3 94 407 382 
3 96 94 382 
3 137 97 386 
3 99 97 137 
3 98 371 99 
3 137 98 99 
3 139 98 137 
3 140 97 104 
3 99 105 104 
3 97 99 104 
3 99 371 105 
3 371 373 100 
3 101 109 102 
3 384 101 102 
3 109 101 81 
3 109 81 103 
3 109 103 110 
3 103 84 110 
3 115 159 174 
3 140 104 145 
3 105 116 374 
3 100 106 116 
3 105 100 116 
3 375 102 107 
3 102 109 108 
3 108 109 110 
3 111 108 110 
3 85 143 84 
3 85 86 143 
3 88 75 119 
3 75 113 119 
3 112 121 113 
3 114 121 112 
3 115 114 112 
3 174 114 115 
3 374 116 117 
3 144 374 117 
3 145 374 144 
3 106 148 117 
3 116 106 117 
3 146 122 107 
3 146 108 111 
3 107 108 146 
3 143 86 118 
3 86 88 118 
3 119 113 120 
3 120 113 121 
3 148 122 149 
3 152 124 123 
3 123 126 125 
3 123 125 152 
3 125 127 153 
3 126 127 125 
3 90 91 157 
3 128 91 92 
3 157 91 128 
3 129 130 131 
3 92 381 130 
3 92 130 129 
3 92 129 128 
3 96 131 130 
3 386 136 132 
3 138 173 139 
3 139 173 134 
3 133 139 134 
3 133 134 131 
3 133 131 96 
3 136 386 97 
3 137 386 138 
3 137 138 139 
3 110 142 111 
3 110 84 141 
3 110 141 142 
3 84 143 141 
3 114 176 121 
3 176 114 174 
3 146 164 122 
3 146 111 164 
3 142 147 111 
3 111 147 164 
3 88 190 118 
3 88 119 190 
3 148 149 408 
3 168 149 122 
3 168 122 164 
3 408 149 150 
3 150 168 151 
3 149 168 150 
3 179 152 180 
3 180 125 153 
3 180 152 125 
3 153 127 154 
3 127 90 155 
3 154 127 155 
3 90 157 155 
3 385 156 169 
3 385 169 128 
3 128 169 157 
3 171 131 158 
3 131 171 129 
3 129 385 128 
3 132 172 186 
3 187 132 186 
3 173 158 134 
3 134 158 131 
3 386 132 187 
3 138 187 173 
3 121 176 160 
3 142 390 147 
3 141 161 390 
3 141 390 142 
3 143 162 161 
3 141 143 161 
3 118 204 162 
3 143 118 162 
3 118 190 204 
3 119 191 190 
3 119 120 191 
3 160 120 121 
3 164 166 168 
3 390 165 147 
3 147 165 166 
3 147 166 164 
3 163 408 167 
3 167 408 387 
3 168 166 151 
3 167 387 195 
3 154 155 170 
3 157 169 170 
3 157 170 155 
3 158 184 171 
3 388 184 158 
3 156 385 171 
3 172 185 186 
3 173 187 388 
3 173 388 158 
3 176 175 160 
3 175 176 174 
3 390 161 177 
3 162 178 177 
3 161 162 177 
3 162 204 178 
3 120 192 191 
3 192 120 160 
3 166 194 151 
3 194 166 165 
3 387 196 195 
3 391 196 387 
3 150 151 387 
3 211 179 180 
3 210 179 211 
3 213 180 153 
3 211 180 213 
3 153 154 181 
3 213 153 181 
3 182 154 170 
3 181 154 182 
3 170 169 183 
3 156 183 169 
3 388 389 184 
3 184 199 171 
3 171 199 156 
3 186 185 202 
3 186 202 188 
3 186 188 187 
3 388 187 188 
3 220 160 189 
3 160 175 189 
3 190 203 204 
3 191 207 203 
3 190 191 203 
3 191 192 207 
3 220 192 160 
3 177 208 390 
3 165 208 193 
3 194 391 151 
3 165 193 194 
3 391 197 196 
3 197 391 209 
3 211 213 212 
3 215 182 170 
3 224 183 156 
3 215 183 224 
3 215 170 183 
3 198 199 184 
3 200 199 198 
3 224 156 199 
3 224 199 200 
3 202 225 188 
3 188 225 389 
3 198 184 389 
3 185 201 202 
3 175 393 189 
3 227 177 178 
3 204 205 178 
3 203 206 205 
3 204 203 205 
3 203 207 206 
3 192 409 207 
3 227 208 177 
3 228 193 208 
3 230 193 228 
3 197 223 196 
3 209 229 197 
3 229 209 230 
3 234 212 213 
3 210 211 212 
3 213 181 214 
3 234 213 214 
3 216 182 215 
3 214 181 182 
3 214 182 216 
3 217 215 224 
3 216 215 217 
3 201 218 219 
3 202 201 219 
3 202 219 225 
3 389 225 226 
3 389 226 198 
3 220 189 392 
3 189 393 392 
3 178 205 227 
3 207 221 206 
3 207 409 221 
3 208 240 228 
3 208 227 240 
3 229 222 197 
3 197 222 223 
3 232 210 212 
3 234 214 235 
3 235 214 216 
3 237 198 226 
3 198 237 200 
3 217 224 200 
3 219 218 248 
3 219 248 247 
3 225 219 247 
3 225 247 226 
3 205 250 241 
3 205 241 227 
3 205 206 250 
3 392 409 220 
3 239 409 392 
3 240 227 241 
3 228 253 244 
3 230 228 244 
3 253 228 240 
3 222 229 231 
3 244 229 230 
3 231 229 244 
3 223 222 255 
3 256 233 234 
3 233 212 234 
3 232 212 233 
3 256 234 235 
3 235 216 236 
3 236 216 217 
3 249 237 226 
3 200 237 246 
3 217 200 246 
3 226 247 249 
3 239 392 260 
3 260 392 238 
3 206 251 250 
3 221 263 251 
3 206 221 251 
3 242 240 241 
3 242 241 261 
3 244 253 243 
3 242 253 240 
3 243 231 244 
3 222 280 255 
3 232 233 245 
3 235 236 268 
3 257 217 246 
3 236 217 257 
3 249 269 237 
3 237 269 246 
3 247 248 258 
3 247 258 249 
3 394 260 238 
3 261 241 250 
3 261 250 275 
3 251 262 275 
3 250 251 275 
3 251 263 262 
3 239 264 263 
3 276 242 261 
3 253 252 243 
3 276 252 242 
3 252 253 242 
3 254 222 231 
3 254 231 279 
3 279 231 243 
3 254 280 222 
3 265 245 233 
3 266 256 235 
3 265 233 256 
3 265 256 266 
3 267 268 236 
3 266 235 268 
3 271 257 246 
3 267 236 257 
3 395 249 258 
3 246 269 271 
3 248 286 258 
3 260 264 239 
3 259 264 260 
3 259 260 394 
3 274 261 275 
3 290 262 263 
3 263 264 290 
3 276 261 274 
3 243 252 295 
3 295 279 243 
3 397 245 265 
3 265 266 281 
3 268 267 284 
3 268 284 266 
3 266 284 281 
3 285 257 271 
3 257 285 267 
3 269 270 271 
3 258 286 396 
3 273 394 287 
3 264 272 290 
3 272 264 259 
3 273 272 259 
3 259 394 273 
3 293 274 275 
3 293 275 262 
3 277 399 276 
3 274 277 276 
3 399 295 252 
3 276 399 252 
3 294 278 254 
3 294 254 279 
3 294 279 295 
3 280 254 278 
3 265 281 296 
3 397 265 296 
3 283 281 284 
3 296 281 283 
3 282 267 285 
3 282 283 284 
3 282 284 267 
3 297 395 396 
3 271 270 299 
3 271 299 285 
3 289 287 288 
3 289 302 273 
3 273 287 289 
3 301 315 293 
3 301 293 262 
3 290 291 301 
3 262 290 301 
3 291 290 272 
3 302 291 272 
3 272 273 302 
3 277 274 292 
3 292 274 293 
3 315 292 293 
3 318 295 399 
3 318 294 295 
3 305 397 296 
3 305 296 304 
3 304 296 283 
3 312 282 285 
3 307 283 282 
3 312 307 282 
3 300 297 396 
3 270 297 298 
3 270 298 299 
3 285 299 311 
3 311 312 285 
3 316 315 301 
3 316 291 325 
3 301 291 316 
3 291 302 325 
3 317 277 292 
3 303 399 277 
3 303 277 317 
3 303 398 399 
3 278 294 330 
3 330 294 320 
3 305 304 306 
3 321 304 283 
3 306 304 321 
3 307 308 283 
3 283 308 321 
3 309 297 300 
3 297 309 298 
3 299 298 310 
3 299 310 311 
3 312 311 334 
3 334 307 312 
3 338 313 316 
3 316 325 338 
3 326 325 302 
3 302 289 326 
3 313 314 315 
3 315 316 313 
3 314 317 292 
3 292 315 314 
3 303 317 327 
3 329 331 320 
3 318 329 320 
3 398 329 318 
3 400 330 319 
3 331 330 320 
3 344 306 321 
3 308 333 321 
3 321 333 344 
3 298 309 322 
3 310 298 322 
3 311 310 323 
3 334 311 323 
3 336 307 334 
3 352 336 334 
3 336 332 308 
3 336 308 307 
3 308 332 333 
3 310 322 347 
3 323 310 347 
3 357 356 324 
3 357 324 313 
3 313 338 357 
3 377 317 314 
3 377 314 324 
3 314 313 324 
3 377 327 317 
3 328 398 327 
3 328 329 398 
3 319 330 331 
3 343 306 344 
3 346 344 333 
3 332 354 333 
3 333 354 346 
3 309 359 322 
3 323 347 335 
3 334 335 352 
3 334 323 335 
3 352 353 336 
3 332 336 353 
3 332 353 337 
3 332 337 354 
3 356 362 324 
3 377 362 364 
3 377 324 362 
3 377 339 327 
3 339 363 328 
3 328 327 339 
3 341 340 331 
3 341 331 329 
3 329 328 341 
3 342 319 340 
3 319 331 340 
3 345 343 344 
3 346 345 344 
3 322 359 348 
3 347 322 348 
3 361 347 348 
3 349 347 361 
3 335 347 349 
3 350 335 349 
3 352 335 350 
3 351 352 350 
3 353 352 351 
3 337 353 351 
3 337 410 354 
3 351 350 368 
3 337 351 355 
3 337 355 410 
3 363 339 364 
3 365 341 363 
3 342 340 411 
3 365 340 341 
3 360 359 358 
3 348 359 360 
3 361 348 360 
3 360 358 370 
3 361 360 370 
3 349 361 402 
3 349 402 366 
3 350 349 366 
3 368 350 366 
3 368 355 351 
3 361 370 401 
3 366 402 367 
3 368 366 367 
3 358 369 370 
3 130 94 96 
3 98 372 371 
3 372 382 373 
3 371 100 105 
3 383 375 100 
3 373 383 100 
3 104 105 374 
3 145 104 374 
3 375 376 106 
3 100 375 106 
3 375 107 376 
3 102 108 107 
3 376 122 148 
3 106 376 148 
3 327 398 303 
3 364 339 377 
3 363 341 328 
3 27 378 28 
3 378 8 28 
3 14 16 15 
3 44 14 403 
3 26 27 28 
3 379 56 45 
3 89 380 78 
3 89 66 380 
3 94 381 406 
3 373 382 383 
3 407 384 383 
3 382 407 383 
3 384 407 101 
3 107 122 376 
3 144 117 163 
3 163 117 148 
3 163 148 408 
3 129 171 385 
3 187 138 386 
3 151 391 387 
3 388 188 389 
3 390 208 165 
3 209 391 194 
3 238 392 393 
3 249 395 269 
3 269 395 270 
3 258 396 395 
3 395 297 270 
3 398 318 399 
3 330 400 278 
3 320 294 318 
3 401 402 361 
3 384 102 375 
3 383 384 375 
3 2 404 9 
3 404 2 10 
3 404 15 9 
3 18 403 404 
3 69 405 58 
3 407 94 406 
3 407 406 82 
3 371 372 373 
3 136 135 132 
3 132 135 172 
3 408 150 387 
3 409 192 220 
3 193 230 209 
3 193 209 194 
3 221 409 239 
3 45 403 18 
3 101 407 82 
3 221 239 263 
