ply
format ascii 1.0
comment Created by CloudCompare v2.13.2 (Kharkiv - Jul  6 2024)
comment Created 2024-12-05T16:22:24
obj_info Generated by CloudCompare!
element vertex 768
property float x
property float y
property float z
element face 1454
property list uchar int vertex_indices
end_header
13.081432 1.188223 408.054504 
14.581735 1.111725 408.185089 
11.791095 1.637491 408.752960 
7.584763 -0.165619 407.396027 
8.547834 0.799656 408.333618 
10.256890 0.809322 407.748138 
13.587274 2.175411 409.666626 
16.646751 2.247562 410.604828 
8.118919 1.463795 409.945709 
10.048664 1.883633 409.637024 
11.910261 2.567564 410.551025 
13.220041 3.074600 411.642090 
14.907965 2.788748 411.126617 
15.493204 1.832769 409.449158 
4.248959 -0.543911 409.855591 
6.764875 0.255405 408.690002 
5.122024 -0.910231 408.332428 
5.540189 0.203220 409.767334 
10.510054 2.779564 411.509216 
19.616442 1.730291 411.506470 
1.360599 -2.827469 410.016907 
3.651294 -2.017815 408.302582 
7.868961 2.148949 411.790558 
9.131664 2.293297 411.063263 
17.871828 2.502247 411.832214 
21.051344 1.703297 412.796234 
19.369709 2.520107 413.140015 
5.185935 0.735855 411.329468 
6.622816 1.166998 410.663300 
9.229861 2.922043 412.698975 
12.532781 3.558308 413.242981 
15.728699 3.715443 414.484985 
16.139780 3.110388 412.392365 
19.368982 3.042551 414.916107 
17.635342 3.194122 413.637451 
21.084751 2.309675 414.495483 
22.771883 1.396156 414.085541 
2.790847 -1.600916 409.908508 
2.007987 -1.273872 411.580597 
4.798166 1.266056 413.347900 
7.851548 2.792000 413.758881 
17.630650 3.592705 415.509552 
21.112610 2.760597 416.376801 
22.842293 1.959438 415.948334 
26.464182 -0.244198 416.005737 
26.154749 0.359650 417.278931 
-2.413278 -7.545580 411.446045 
-1.300443 -5.804361 410.827759 
-0.039408 -4.220108 410.300598 
3.592337 -0.106750 411.560242 
6.471597 1.842094 412.624756 
12.866299 4.007441 415.968658 
22.781960 2.334396 417.968628 
24.725235 0.818901 415.543365 
24.469370 1.460308 417.512970 
27.759525 -0.934444 417.206329 
29.262877 -1.887327 418.782959 
-0.840661 -4.036995 411.967712 
0.515655 -2.571505 411.661469 
2.407899 0.312265 414.893127 
1.302516 -1.034199 413.263214 
5.049613 1.856274 415.047668 
6.358947 2.357128 414.515717 
11.241190 3.890669 416.434937 
11.720348 3.799706 414.745544 
14.554998 4.022413 416.222351 
13.616789 3.870256 414.632507 
17.490000 3.806433 417.477600 
19.320324 3.385754 416.839172 
26.012945 0.728266 419.144836 
27.661047 -0.471170 418.922485 
-3.348302 -9.649694 411.952148 
-2.042374 -5.682592 412.545013 
-1.475405 -3.934519 413.734406 
2.961576 0.156334 413.254639 
6.027554 2.487158 416.139862 
7.751652 3.069584 415.691833 
9.632621 3.475550 414.831604 
16.205973 3.905479 416.322205 
30.698156 -3.051025 420.414368 
-3.166230 -7.485716 413.171906 
-0.184889 -2.406231 413.349854 
3.864302 1.124714 414.642303 
19.128223 3.546249 418.881836 
21.013699 3.031080 418.392639 
24.374149 1.695755 419.559174 
27.541727 -0.260254 420.867523 
29.157633 -1.552502 420.658386 
32.031380 -4.491488 421.963257 
-4.232852 -11.450883 412.927155 
-3.821441 -7.437580 414.965881 
-0.745436 -2.344833 415.150543 
1.981743 0.347490 416.693115 
0.725117 -0.927025 414.980469 
-4.816287 -13.259033 413.666168 
7.462271 3.073175 417.451599 
9.337507 3.570225 416.996002 
9.042918 3.463783 419.088440 
13.053425 4.064260 417.718658 
15.378733 4.044859 418.126373 
15.288685 3.969332 420.227051 
17.175827 3.861334 419.508667 
20.816021 3.092127 420.424255 
24.217545 1.698904 421.634155 
25.904619 0.825922 421.168884 
27.367048 -0.286650 422.893066 
28.979425 -1.499628 422.665283 
-4.970850 -11.316366 414.615479 
-4.183945 -9.401971 413.861542 
-4.808977 -9.380432 415.614441 
-2.681207 -5.619186 414.331970 
-5.471821 -16.676067 414.967773 
-5.232325 -15.005681 414.367462 
5.591719 2.379726 417.738464 
4.035943 1.554693 416.242615 
10.862394 3.707390 420.314697 
10.975587 3.860947 418.340210 
22.656412 2.476274 420.029480 
30.534281 -2.877558 422.371338 
33.282967 -6.236425 423.394226 
34.525806 -8.424652 424.614044 
-2.048361 -3.932566 415.587708 
-3.270508 -5.681000 416.202271 
-2.555110 -4.091715 417.509308 
-1.229992 -2.466127 416.973816 
4.123065 1.559910 420.210999 
5.430589 2.237686 419.547607 
3.606562 1.408983 418.423004 
8.080027 3.088581 420.421509 
13.722555 3.901548 420.930908 
13.841877 4.044132 419.312317 
12.382328 3.948175 419.657043 
18.900537 3.510685 420.872284 
22.443846 2.407484 422.047424 
31.790667 -4.454071 423.918762 
-5.525961 -11.335461 416.346497 
-3.830057 -5.937437 418.193237 
0.232188 -1.018545 416.788513 
-0.322279 -1.403809 418.226379 
-0.250415 -1.360828 419.835449 
-5.902613 -14.891460 416.117859 
-5.530472 -13.197848 415.381409 
2.780679 0.840548 420.010040 
-5.486290 -18.435177 415.323303 
-5.334289 -20.332623 415.559021 
-5.859352 -20.419209 417.185394 
-6.036170 -18.417503 416.921997 
7.078878 2.904343 419.103119 
12.407442 3.728416 421.570313 
20.570038 2.955034 422.376526 
25.678291 0.719458 423.232727 
27.014605 -0.476376 424.915344 
28.692139 -1.635914 424.669678 
30.271498 -2.954708 424.379120 
31.403811 -4.606943 425.910767 
34.914909 -10.120081 426.447815 
36.268711 -14.684514 427.116516 
-5.298198 -9.554631 417.475098 
-4.426610 -7.577847 416.826813 
-6.305672 -14.651318 417.765442 
1.350111 -0.195055 420.848999 
1.330122 -0.041840 418.710632 
9.467394 3.328611 421.188385 
15.361734 3.751915 422.017670 
14.025829 3.602661 422.815308 
18.622950 3.321798 422.676819 
23.921583 1.530184 423.644287 
26.356047 -0.673590 426.766602 
28.159527 -1.827185 426.571564 
32.958946 -6.323879 425.333740 
-5.914394 -11.461076 418.114624 
-1.572791 -2.672510 418.770569 
-1.786870 -2.967739 420.690369 
-6.007485 -13.094169 417.085327 
-6.256206 -13.025001 418.487549 
-0.322858 -1.677223 421.780273 
-6.072715 -16.554354 416.652771 
-6.448030 -16.400330 418.274658 
6.753891 2.597406 420.889282 
11.098158 3.438150 422.285522 
12.713013 3.371616 423.472565 
14.444063 3.090279 424.876526 
15.844851 3.388147 423.754303 
20.174038 2.685713 424.202728 
21.680494 1.807446 425.797607 
22.114010 2.177591 423.971741 
25.260626 0.485624 425.194397 
24.740442 0.235773 426.733490 
32.384129 -6.453808 427.262939 
35.889587 -12.297832 426.343811 
-5.656614 -9.895704 419.428131 
-5.120341 -8.280019 420.887268 
-4.874307 -7.887370 418.843445 
-2.963448 -4.396561 419.501831 
-6.503639 -14.313735 419.283722 
5.187976 1.882584 421.432007 
4.659822 1.281450 423.065857 
6.444961 2.031807 423.090515 
-6.215079 -20.547264 419.019470 
-5.659341 -22.381489 417.785675 
8.122759 2.820059 422.100800 
11.389532 3.030231 424.147064 
9.733992 2.996675 423.121033 
-4.595625 -27.358932 419.176758 
12.808186 2.946972 425.014984 
17.676197 2.476494 426.309875 
19.100147 1.739328 427.636688 
19.649715 2.285593 425.954285 
21.089931 1.334862 427.511536 
23.246269 0.584011 427.536133 
23.527388 1.206621 425.546967 
29.075613 -3.111546 427.810120 
29.823229 -3.128107 426.320862 
30.634748 -4.751465 428.018188 
31.772860 -6.867260 429.108551 
33.772827 -8.217507 426.737305 
33.022915 -8.106914 428.327820 
36.520943 -16.583138 427.329437 
35.654221 -22.606007 428.628357 
-6.665718 -16.427288 420.120911 
-6.244873 -12.117062 419.951416 
-6.570384 -18.845428 420.471527 
-6.392989 -18.482525 418.585602 
-6.353453 -20.769117 421.070251 
-5.990324 -22.346613 419.796417 
-5.452714 -24.197075 418.809265 
-4.172660 -28.566879 420.146057 
15.727495 2.370747 426.918701 
17.426714 1.893938 427.808899 
27.278294 -2.062599 428.499146 
30.154459 -5.547810 429.976288 
33.964966 -9.936485 428.463623 
34.966022 -11.509734 427.835052 
35.333576 -13.382598 428.400269 
34.575363 -14.169188 430.151550 
35.313065 -18.211758 429.649719 
36.005207 -20.078112 428.477539 
36.286373 -18.103392 428.042297 
-4.178325 -6.303877 420.250763 
-4.267641 -6.716585 422.355530 
-6.591689 -14.167979 420.984222 
-5.828788 -10.308238 421.434509 
-5.136390 -8.689100 422.937317 
-3.129258 -5.282579 423.660156 
-3.168143 -4.803890 421.565796 
1.374109 -0.579344 422.864746 
8.301277 2.366671 424.104736 
10.038176 2.483925 425.112122 
-5.158198 -25.734781 420.140839 
25.233950 -0.653484 428.202454 
25.707096 -1.693945 429.639343 
28.880873 -3.798008 429.310974 
31.132406 -7.536427 430.823730 
33.785000 -12.741641 430.781677 
33.342010 -10.877167 430.355774 
34.381821 -12.072440 429.411194 
34.498550 -16.402687 430.811646 
35.581425 -15.864887 428.925476 
34.989765 -20.518898 429.956573 
-6.547460 -14.464916 423.021179 
-6.172668 -12.911860 424.298401 
-6.315816 -12.422702 422.143982 
-1.866939 -3.421398 422.718506 
-1.727524 -3.961277 424.759766 
-0.292399 -2.171898 423.787964 
1.513530 -1.099840 424.814728 
6.880128 1.515285 425.283417 
-5.701546 -23.867731 420.994202 
-6.079357 -22.286516 421.617920 
11.768045 2.475761 426.020844 
14.344626 1.652254 428.516113 
13.567397 2.457720 426.580383 
22.311678 0.127369 429.214752 
23.341597 -1.308809 430.913361 
24.110077 -0.754982 429.469543 
27.054647 -3.205675 430.595154 
29.462816 -6.228569 431.604980 
32.634602 -8.848742 429.836792 
33.492298 -14.472256 431.852570 
34.089020 -20.803576 431.243469 
33.200550 -27.432896 430.589478 
-4.145132 -7.213339 424.442200 
-0.038467 -2.705542 425.720825 
1.884411 -1.596397 426.580322 
8.636478 1.767042 426.132263 
9.068839 1.161627 427.819092 
10.394424 1.786087 427.143066 
-5.235583 -25.226044 422.668213 
-4.703162 -27.086525 421.356445 
12.883802 0.833420 429.868408 
12.289709 1.745972 427.958679 
-4.085260 -28.468082 422.209412 
-4.511915 -26.962341 423.490601 
15.140694 0.526134 430.596252 
21.560438 -0.572445 430.816620 
20.390680 0.712292 429.197693 
25.064209 -2.222090 430.996887 
27.788837 -5.026899 432.077545 
28.659712 -4.632967 430.737244 
30.413147 -8.371892 432.424011 
32.035339 -9.718499 431.435516 
31.376146 -10.736417 432.890015 
32.821690 -11.997304 431.777954 
34.278244 -18.749195 431.191223 
33.385082 -17.101213 432.391510 
32.966591 -26.014746 431.535278 
33.808548 -25.445118 430.421570 
34.342037 -22.929920 430.443756 
33.291618 -24.060822 431.704956 
33.526062 -22.041822 431.846985 
-5.796422 -10.789214 423.504700 
-4.971056 -9.241111 424.996765 
-6.215312 -14.905992 425.471039 
-6.204416 -20.071012 424.608521 
-6.505451 -19.455206 422.576111 
3.484860 -0.206560 425.713867 
2.403258 -2.116320 428.235229 
8.351261 0.434349 428.833618 
7.431682 0.956875 427.155151 
-3.419226 -29.787449 422.784241 
16.407600 1.395578 429.000916 
17.442453 0.316830 430.762665 
19.569538 -0.088711 430.881531 
26.039682 -3.932892 432.368439 
28.627485 -7.051612 433.187408 
29.582903 -9.377418 433.949341 
32.124928 -13.151351 433.122955 
33.167736 -19.866930 432.643036 
32.305397 -27.412325 432.017700 
31.714279 -28.819731 432.370178 
-2.888584 -5.883015 425.761719 
4.631579 -1.132795 428.839233 
-5.809342 -20.551298 426.197144 
-5.796154 -23.179306 423.040466 
10.597511 0.857515 429.158417 
9.216968 -0.199074 430.362793 
13.298304 -0.273670 431.660431 
-4.056881 -27.121809 425.334351 
-3.750153 -28.555225 424.026123 
-2.814802 -30.319929 424.451996 
20.690388 -1.417248 432.367188 
22.552013 -2.074415 432.385681 
23.302761 -3.717314 433.830383 
24.290892 -2.962534 432.472778 
30.534800 -11.811588 434.278625 
30.978424 -16.439095 434.973969 
32.082539 -17.974546 433.955505 
32.333672 -15.529243 433.470032 
31.081682 -14.161449 434.502319 
31.822500 -20.526329 434.293091 
31.562521 -22.964993 434.364807 
32.659653 -22.393673 433.022339 
32.240509 -25.001345 432.968567 
-5.562296 -11.372338 425.549072 
-5.172352 -12.033403 427.402283 
-4.650475 -9.998640 427.009033 
-3.843532 -7.906712 426.561157 
-2.409832 -6.607889 427.911041 
-1.370169 -4.575588 426.801849 
0.413250 -3.277617 427.589417 
1.066426 -3.840986 429.337585 
3.923027 -2.925997 430.926636 
5.277449 -1.651594 430.203552 
3.054760 -2.624773 429.735443 
6.972242 -0.501217 429.599701 
-4.226034 -25.593842 426.888123 
-5.380343 -24.015657 424.417786 
-5.085714 -23.809082 426.057556 
-4.821711 -25.441515 424.875336 
-3.316100 -27.662565 426.948059 
-3.316756 -28.686972 425.501312 
15.068823 -0.801945 432.507690 
16.534557 -0.390312 431.921539 
-0.582033 -32.462929 427.152802 
-1.732296 -31.515182 425.879242 
18.468748 -1.032516 432.503967 
19.866879 -2.202637 433.566284 
25.068201 -4.735392 433.839844 
26.842218 -5.842625 433.640625 
28.585539 -10.604617 435.432251 
29.470730 -12.980876 435.615112 
29.682844 -30.277088 433.892212 
30.811739 -29.325291 433.203186 
29.804708 -28.148546 434.554260 
31.180424 -27.059633 433.574890 
30.037680 -25.994244 435.188171 
-5.832192 -13.171467 426.103699 
-4.469666 -12.507646 429.347137 
-0.759412 -5.186823 428.760712 
-6.039135 -18.846443 426.162415 
-4.576145 -23.672134 427.864746 
7.550447 -1.216045 431.034424 
7.950143 -2.282255 432.618469 
11.665298 -1.257488 432.651764 
11.315240 -0.117603 431.018005 
-1.341712 -30.685040 427.863312 
18.349257 -2.464993 434.182373 
21.504185 -2.832455 433.711578 
25.527773 -6.525902 435.051025 
23.730717 -5.411230 435.141479 
26.444391 -9.775724 436.457153 
27.411247 -8.093472 434.915771 
25.515348 -8.082158 436.079498 
29.962914 -15.022243 435.686157 
30.494652 -19.021971 435.653870 
31.165541 -24.888609 434.368225 
30.482634 -21.673363 435.662292 
-5.663249 -17.775688 427.750427 
-3.369497 -8.931269 428.784302 
-4.324152 -10.824084 428.538055 
-1.470126 -7.243843 430.153107 
0.129112 -5.475285 430.303101 
-5.231983 -16.810680 428.958435 
-5.351180 -19.969931 428.052948 
-5.306872 -21.989742 427.003357 
-4.631484 -22.015572 428.932251 
5.815171 -2.447382 431.665680 
4.114987 -3.955828 432.311066 
-3.809867 -23.643461 429.770264 
9.690096 -1.141850 431.913086 
-3.307678 -26.608494 428.236572 
13.515219 -1.619474 433.399902 
16.725716 -1.543818 433.367462 
16.931480 -2.886230 434.782898 
-0.345982 -31.569561 428.670898 
20.054676 -3.465034 434.803101 
20.298267 -5.149611 436.165192 
21.897966 -4.383211 435.051941 
23.916857 -7.122281 436.283997 
24.112822 -9.116494 437.310608 
27.500946 -12.000380 436.728058 
25.423491 -11.275090 437.618958 
29.067926 -23.126472 436.727478 
28.422903 -29.436268 435.176239 
28.569189 -27.311752 435.962708 
30.275841 -23.901720 435.561920 
28.834269 -25.230223 436.479858 
27.066153 -30.887058 435.493225 
-3.675131 -13.504693 431.227966 
-4.885608 -15.024424 429.484619 
2.973707 -6.829353 434.199860 
2.484957 -5.617115 432.770447 
0.453819 -6.406118 431.650085 
2.034490 -4.395590 431.079590 
6.220912 -3.698078 433.337311 
-4.358337 -20.571175 430.244934 
-2.680012 -25.093699 430.910461 
-3.681498 -25.144264 428.833191 
9.987341 -2.341272 433.469238 
12.010593 -3.702131 435.321259 
11.900839 -2.528126 434.156189 
-2.787425 -26.416172 429.589233 
-1.763810 -26.982891 430.958801 
-0.947438 -28.535500 430.860291 
13.518620 -3.179031 435.037476 
15.291294 -2.535456 434.493011 
16.278238 -4.263149 436.058319 
0.448503 -31.522377 429.960876 
0.567411 -32.947662 428.539124 
1.429413 -32.967144 429.777466 
18.222149 -4.248989 435.859955 
20.847185 -7.023730 437.302673 
3.493813 -35.202408 429.890015 
2.004363 -34.551899 428.746765 
4.128608 -34.539570 431.275848 
22.154078 -6.077209 436.286743 
22.506018 -7.658848 437.171143 
24.915216 -12.761865 438.331726 
26.525248 -13.408851 437.710205 
29.255007 -16.858429 436.532959 
28.408163 -14.353683 436.749390 
27.573332 -24.514175 437.514221 
26.786642 -28.806572 436.584229 
-2.467780 -9.537786 430.785461 
-3.620377 -10.661345 429.782349 
-0.807518 -8.355272 431.990509 
1.652905 -8.261586 434.275574 
1.063950 -7.358316 433.088837 
-3.689639 -19.436697 431.783691 
-4.791812 -18.465721 429.867584 
-4.601977 -16.786961 430.331970 
-3.696748 -22.222185 430.844086 
8.806911 -5.053099 435.677429 
8.300991 -3.637522 434.236206 
14.688902 -4.514402 436.275085 
2.626222 -33.698208 430.514587 
17.735418 -7.918390 438.374115 
19.824266 -8.352501 438.272644 
18.915426 -6.342733 437.288330 
21.903950 -8.941836 438.038513 
23.319418 -11.206309 438.490631 
7.792206 -35.759609 432.943115 
25.602018 -14.760136 438.476868 
26.087049 -17.092600 438.559265 
27.764189 -18.061855 437.697571 
27.349442 -15.762638 437.693329 
27.825413 -20.179338 437.741638 
24.584505 -24.728008 438.981720 
27.775095 -22.346672 437.685211 
23.079245 -33.368313 436.262756 
24.096235 -31.489162 436.738525 
25.425613 -27.638916 437.809326 
25.692688 -30.524757 436.424042 
27.242605 -26.584515 437.171387 
25.695345 -32.192226 435.711914 
-3.864365 -15.641357 431.514130 
-1.689677 -10.365952 432.381348 
-2.285415 -12.295958 432.681000 
-0.743929 -11.209776 433.897675 
1.179696 -10.208166 435.104492 
0.032783 -9.220906 433.498718 
5.002187 -6.760151 435.388550 
3.358020 -8.502163 435.636108 
4.548757 -5.261061 433.904602 
-3.858581 -17.598322 431.682648 
7.252205 -6.690742 436.354309 
6.637862 -5.182022 434.944824 
10.946894 -4.919918 436.143555 
-2.966680 -23.493114 431.465942 
-2.657932 -22.197786 432.579529 
12.934401 -4.834686 436.402405 
-1.238822 -25.877106 432.623291 
0.171688 -26.471867 434.011780 
14.033619 -6.637096 437.757263 
-0.404809 -27.652035 432.452576 
0.562535 -29.818037 431.839691 
1.145648 -28.221447 433.895203 
2.074296 -31.139549 432.467590 
17.013802 -5.982944 437.290039 
1.593711 -31.927931 431.110596 
4.652331 -33.484070 432.813477 
3.477505 -31.645901 433.460632 
3.030465 -32.718285 431.996552 
18.713949 -9.879991 439.159882 
20.957396 -10.430621 438.932373 
21.925468 -12.663850 439.396881 
5.775381 -35.305794 431.975159 
9.373503 -34.955101 434.499939 
23.879122 -13.720501 439.005554 
22.641092 -15.055666 439.704895 
24.402956 -16.142895 439.227051 
24.574423 -22.643068 439.282959 
24.476603 -20.505033 439.445007 
26.241196 -19.273069 438.617859 
26.226820 -23.622387 438.405945 
26.254904 -21.415319 438.594116 
19.154909 -33.253387 437.116699 
22.117046 -31.828621 437.267212 
24.727821 -29.447750 437.403503 
25.961794 -25.717287 438.136047 
21.091978 -33.743908 436.571960 
-2.797763 -18.178898 433.235474 
-3.028168 -16.495089 432.873718 
-1.334618 -12.953362 434.052368 
-2.520557 -14.482708 433.168640 
-0.006718 -12.511042 435.177063 
-1.475238 -18.431351 434.817749 
5.759361 -8.265915 436.751770 
-3.407262 -21.011383 431.846497 
-0.840004 -20.178177 435.327881 
-0.596724 -25.022257 433.969910 
-1.792544 -23.923418 433.016724 
9.576689 -6.524652 436.983673 
11.824945 -6.486082 437.432159 
2.271797 -29.944853 433.735535 
16.558527 -9.452049 439.205536 
17.516510 -11.255383 439.809448 
5.224666 -32.268265 434.385071 
19.709784 -11.792011 439.667633 
6.376227 -34.072559 433.596008 
7.067667 -32.743347 435.209564 
20.360035 -14.040151 440.112885 
19.537346 -16.343418 440.648987 
7.873941 -34.251041 434.359406 
22.897404 -17.346783 439.914459 
11.330145 -35.431091 434.890808 
14.140388 -32.963818 437.347168 
24.515009 -18.401917 439.387085 
14.720610 -34.542309 436.342285 
20.298895 -27.277958 439.653442 
16.173300 -35.284180 436.022034 
17.888992 -32.018829 437.942444 
19.448648 -28.954983 439.218689 
20.867634 -30.336004 438.328918 
21.484159 -28.675331 438.885803 
20.121027 -31.975311 437.663574 
22.797371 -30.004364 437.922913 
23.441175 -28.280939 438.419128 
24.159113 -26.593927 438.710876 
22.263674 -26.997244 439.246735 
23.095709 -25.533194 439.374939 
22.965677 -23.814922 439.739807 
-1.886866 -16.477713 434.290588 
-0.204102 -16.634418 435.990356 
-0.946651 -14.552408 434.942810 
1.490771 -12.177487 436.250000 
2.964563 -14.200888 437.821808 
3.145644 -10.711577 436.707642 
4.113574 -12.547228 437.954163 
-1.404110 -21.999426 434.301239 
0.308932 -21.988520 436.070862 
0.650813 -25.117550 435.263702 
-0.415799 -23.630007 434.829132 
11.434497 -9.878628 439.165710 
10.502094 -8.141040 438.176575 
14.633076 -8.867116 438.984283 
12.690760 -8.313779 438.600464 
2.919481 -28.607285 435.345093 
13.521482 -10.274710 439.533783 
4.834403 -28.979528 436.548706 
3.672671 -27.054346 436.827667 
15.470774 -10.846994 439.785400 
5.997477 -30.874449 436.022339 
4.060638 -30.418633 434.992676 
8.268303 -31.289780 436.917664 
18.019377 -14.249763 440.525116 
17.385759 -16.239925 440.899963 
9.935017 -32.375034 436.816956 
21.449553 -16.148367 440.214050 
10.620371 -33.847649 435.930542 
11.797509 -32.585880 437.206757 
13.090109 -31.084103 438.362152 
10.528912 -31.046478 437.870148 
19.651758 -19.045195 440.829834 
22.735142 -19.484144 440.078613 
21.213791 -18.087322 440.457581 
15.587112 -31.778952 438.158203 
16.792580 -30.733448 438.694397 
17.187450 -29.305521 439.332092 
15.127737 -30.040466 439.043396 
19.705784 -24.025417 440.526550 
19.693680 -21.687973 440.779388 
18.743536 -30.548016 438.619141 
21.321280 -25.254539 439.953094 
0.756460 -19.938080 436.796906 
-0.161453 -18.641535 436.102661 
0.580243 -14.282543 436.230286 
2.643673 -12.487482 437.128601 
1.463360 -17.862553 437.387573 
3.066204 -16.195484 438.244690 
9.108652 -9.853416 438.701294 
7.661768 -11.500698 438.968506 
0.906219 -23.775009 436.061218 
6.261695 -13.017193 439.001465 
10.073353 -11.581217 439.571655 
1.814065 -23.080050 437.018005 
3.539286 -23.091307 438.144714 
12.289820 -11.737854 439.939209 
1.794844 -26.780602 435.475342 
2.390386 -24.938126 436.831085 
12.822737 -13.549719 440.458191 
14.419609 -12.580926 440.308716 
13.018719 -17.532148 441.018188 
16.013811 -14.488730 440.712402 
14.170599 -15.391319 440.857117 
6.898835 -29.237207 437.557617 
5.650301 -27.327822 437.890991 
7.784097 -27.269169 438.836609 
16.022402 -21.093418 441.164948 
15.826527 -16.572498 441.013794 
18.282257 -17.989269 440.978455 
11.339425 -29.553856 438.855042 
11.810266 -28.219803 439.502197 
9.109591 -29.418554 438.338470 
16.748131 -18.515253 441.130157 
13.319843 -29.124634 439.336273 
15.926001 -23.944244 440.893127 
18.100203 -20.315613 441.057892 
16.862989 -26.117790 440.422150 
18.073383 -27.636065 439.885376 
15.417723 -27.967175 439.886993 
18.016941 -24.755886 440.639130 
17.993105 -22.863176 440.920776 
19.142622 -25.934166 440.237671 
2.482640 -19.642361 438.024109 
4.562112 -16.628609 439.027954 
3.455960 -17.964426 438.591370 
4.869887 -14.780919 438.885712 
8.667278 -13.290617 439.771606 
3.459767 -21.107414 438.450195 
2.004327 -21.466499 437.510071 
7.354175 -14.910404 439.779419 
6.343886 -16.541552 439.698975 
8.587809 -16.804813 440.341064 
9.726633 -15.106926 440.357300 
10.987999 -13.369904 440.222290 
7.565571 -18.452366 440.187592 
9.776455 -18.834124 440.687134 
10.857269 -17.115616 440.769775 
11.978360 -15.279246 440.695282 
6.228755 -25.768211 438.756561 
7.527504 -24.877224 439.498474 
9.482826 -22.134100 440.484344 
10.059042 -27.931898 439.261536 
9.276104 -25.968651 439.715179 
14.449247 -22.143835 441.084045 
14.961075 -18.274858 441.143738 
11.112453 -26.681633 439.899353 
13.056211 -27.273514 439.983826 
12.279572 -25.298485 440.424194 
14.496237 -25.786890 440.499817 
10.333145 -3.607492 434.866821 
8.137632 -8.223608 437.616089 
22.759901 -21.653406 440.026917 
4.346494 -19.721136 439.011932 
5.421629 -18.145660 439.478577 
6.437494 -20.119003 439.827179 
5.682826 -23.876953 439.037964 
5.125685 -21.702148 439.183929 
7.415735 -22.426613 439.928772 
9.188597 -23.900345 440.167419 
10.741048 -20.870407 440.809082 
8.634644 -20.475811 440.428955 
11.915293 -19.274492 440.992676 
11.253170 -23.168173 440.671753 
10.539076 -24.999092 440.227295 
12.736127 -21.518126 441.017487 
11.823154 3.147455 412.058411 
10.828262 3.375427 413.192902 
17.000050 3.735338 421.368408 
16.942003 3.510975 422.846619 
3.268716 0.850975 421.815643 
3.193072 0.272430 423.926514 
5.512967 0.506939 426.436096 
5.033683 0.970547 424.673523 
18.413870 1.068087 429.255310 
34.749416 -24.660559 429.321899 
6.220358 0.028957 428.101044 
4.010814 -0.657110 427.346924 
-5.758920 -22.149439 424.996826 
-6.198674 -21.315296 423.070404 
-2.042034 -32.029572 424.034088 
-5.736039 -15.916094 427.505798 
-5.521736 -13.998127 427.567566 
-3.146025 -11.470341 431.072632 
18.402021 -12.732594 440.136658 
16.552834 -12.632635 440.285278 
13.309591 -35.693466 435.276184 
12.658388 -34.177021 436.249298 
16.868299 -33.726891 436.992065 
6.718093 -9.802425 437.955963 
21.135393 -20.458910 440.525085 
1.821548 -13.761084 437.001343 
1.571502 -15.631260 437.243958 
4.521377 -25.373697 438.050720 
13.548418 -23.675259 440.851257 
18.438738 1.454086 410.205078 
14.329708 3.474434 412.941742 
17.934587 3.035559 424.441101 
16.329350 2.941029 425.281799 
-6.678219 -17.526228 422.056030 
-6.697473 -15.793358 421.860352 
-6.214137 -16.978859 425.838318 
-6.460871 -18.203869 424.188812 
-2.465782 -29.630041 426.620544 
-2.141436 -28.345341 428.903992 
-0.692919 -30.059349 429.728821 
29.022009 -19.041077 436.908997 
29.194571 -20.910517 436.793762 
15.540504 -5.827082 437.257996 
15.823782 -7.515392 438.292084 
-2.415962 -20.228769 433.499298 
8.822367 -33.278690 435.677124 
4.725159 -9.593176 437.007721 
5.342336 -11.123370 437.993103 
21.278212 -22.859901 440.344635 
13.900171 -20.032742 441.149536 
-6.575925 -16.365091 423.722961 
3 6 1 0 
3 1 6 13 
3 4 3 15 
3 9 5 4 
3 9 2 5 
3 6 0 2 
3 24 746 7 
3 746 24 19 
3 8 4 15 
3 8 9 4 
3 23 9 8 
3 10 2 9 
3 10 6 2 
3 11 6 10 
3 6 11 12 
3 6 12 13 
3 13 12 7 
3 12 32 7 
3 14 16 21 
3 16 14 17 
3 15 16 17 
3 28 15 17 
3 8 15 28 
3 18 9 23 
3 18 10 9 
3 718 717 18 
3 26 19 24 
3 19 26 25 
3 37 14 21 
3 22 8 28 
3 22 23 8 
3 24 7 32 
3 34 26 24 
3 25 26 35 
3 25 35 36 
3 49 14 37 
3 14 49 27 
3 17 14 27 
3 27 28 17 
3 50 28 27 
3 22 28 50 
3 23 22 29 
3 23 29 18 
3 29 718 18 
3 718 30 717 
3 31 32 747 
3 32 31 34 
3 33 26 34 
3 26 33 35 
3 43 36 35 
3 36 43 53 
3 20 48 58 
3 20 58 38 
3 37 20 38 
3 38 49 37 
3 74 49 38 
3 27 49 39 
3 39 50 27 
3 22 50 40 
3 64 66 30 
3 66 747 30 
3 66 31 747 
3 31 41 34 
3 34 41 33 
3 35 33 42 
3 42 43 35 
3 44 53 45 
3 44 45 55 
3 48 47 57 
3 48 57 58 
3 49 74 39 
3 62 50 39 
3 50 62 40 
3 29 22 40 
3 40 77 29 
3 64 718 77 
3 64 51 66 
3 65 31 66 
3 78 41 31 
3 78 31 65 
3 33 41 68 
3 33 68 42 
3 52 43 42 
3 43 52 54 
3 53 43 54 
3 53 54 45 
3 55 45 70 
3 55 70 56 
3 47 46 72 
3 47 72 57 
3 58 57 81 
3 58 81 60 
3 38 58 60 
3 60 74 38 
3 59 74 60 
3 61 62 39 
3 40 62 76 
3 76 77 40 
3 63 64 77 
3 64 63 51 
3 98 65 51 
3 51 65 66 
3 68 67 83 
3 68 83 84 
3 42 68 84 
3 84 52 42 
3 54 52 85 
3 54 85 69 
3 45 54 69 
3 45 69 70 
3 71 108 80 
3 46 71 80 
3 46 80 72 
3 57 72 73 
3 57 73 81 
3 74 59 82 
3 39 74 82 
3 82 61 39 
3 75 62 61 
3 62 75 76 
3 96 77 76 
3 96 63 77 
3 99 65 98 
3 99 78 65 
3 99 67 78 
3 56 70 87 
3 56 87 79 
3 72 80 110 
3 72 110 73 
3 81 73 91 
3 81 91 93 
3 60 81 93 
3 93 59 60 
3 92 59 93 
3 82 59 114 
3 114 61 82 
3 116 63 96 
3 63 116 98 
3 51 63 98 
3 67 101 83 
3 102 84 83 
3 84 117 52 
3 69 85 104 
3 69 104 86 
3 70 69 86 
3 70 86 87 
3 79 87 118 
3 79 118 88 
3 89 107 108 
3 80 108 90 
3 80 90 110 
3 73 110 121 
3 73 121 91 
3 93 91 137 
3 137 92 93 
3 107 89 94 
3 59 92 114 
3 75 113 95 
3 76 75 95 
3 95 96 76 
3 97 96 95 
3 97 116 96 
3 98 116 131 
3 130 98 131 
3 130 99 98 
3 100 99 130 
3 101 99 100 
3 83 101 132 
3 102 83 132 
3 85 103 104 
3 86 104 105 
3 86 105 106 
3 87 86 106 
3 87 106 118 
3 108 107 109 
3 108 109 90 
3 110 90 122 
3 110 122 121 
3 91 121 124 
3 91 124 137 
3 94 112 141 
3 141 107 94 
3 114 92 127 
3 127 113 114 
3 126 113 127 
3 113 126 147 
3 95 113 147 
3 147 97 95 
3 115 116 97 
3 116 115 131 
3 99 101 67 
3 149 102 132 
3 102 149 133 
3 117 102 133 
3 104 103 150 
3 104 150 105 
3 88 118 134 
3 88 134 119 
3 120 119 169 
3 135 107 141 
3 107 135 109 
3 90 109 158 
3 90 158 122 
3 121 122 123 
3 121 123 124 
3 161 92 137 
3 140 112 111 
3 112 140 141 
3 92 161 127 
3 125 126 127 
3 178 147 126 
3 97 147 128 
3 131 115 148 
3 129 130 131 
3 129 131 148 
3 129 100 130 
3 163 100 129 
3 163 720 719 
3 132 719 165 
3 149 132 165 
3 133 149 185 
3 133 185 166 
3 103 133 166 
3 103 166 150 
3 106 105 152 
3 106 152 153 
3 118 106 153 
3 118 153 134 
3 119 134 169 
3 109 135 157 
3 109 157 158 
3 122 158 136 
3 122 136 123 
3 124 123 171 
3 124 171 138 
3 137 124 138 
3 138 161 137 
3 139 161 138 
3 176 140 111 
3 141 140 173 
3 173 135 141 
3 127 161 142 
3 142 125 127 
3 146 143 144 
3 145 146 144 
3 176 111 143 
3 176 143 146 
3 178 128 147 
3 97 128 162 
3 162 115 97 
3 179 115 162 
3 115 179 148 
3 148 164 129 
3 182 720 163 
3 165 183 149 
3 183 185 149 
3 150 166 186 
3 150 186 151 
3 105 150 151 
3 105 151 152 
3 153 152 212 
3 153 212 154 
3 134 153 154 
3 134 154 169 
3 215 120 169 
3 120 215 155 
3 170 135 173 
3 135 170 157 
3 158 157 192 
3 158 192 136 
3 123 136 193 
3 123 193 171 
3 138 171 139 
3 159 140 176 
3 140 159 173 
3 160 161 139 
3 161 160 142 
3 195 126 125 
3 195 178 126 
3 200 128 178 
3 162 128 200 
3 164 163 129 
3 182 163 164 
3 165 720 748 
3 165 748 183 
3 184 185 183 
3 166 185 210 
3 166 210 186 
3 151 186 167 
3 151 167 168 
3 152 151 168 
3 152 168 212 
3 169 154 188 
3 188 215 169 
3 231 155 215 
3 232 155 231 
3 189 155 232 
3 157 170 190 
3 157 190 192 
3 136 192 238 
3 136 238 193 
3 171 193 172 
3 139 171 172 
3 175 139 172 
3 177 159 176 
3 174 170 173 
3 174 173 159 
3 160 139 175 
3 721 142 160 
3 125 142 721 
3 177 176 146 
3 177 146 222 
3 195 125 721 
3 197 178 195 
3 198 145 199 
3 222 146 145 
3 222 145 198 
3 200 178 197 
3 202 162 200 
3 202 179 162 
3 201 179 202 
3 180 148 179 
3 180 179 201 
3 180 164 148 
3 181 164 180 
3 181 749 182 
3 181 182 164 
3 749 748 182 
3 183 748 207 
3 207 184 183 
3 184 210 185 
3 186 210 187 
3 186 187 167 
3 154 212 213 
3 188 154 213 
3 189 232 233 
3 233 156 189 
3 220 170 174 
3 220 190 170 
3 241 190 220 
3 192 190 191 
3 192 191 238 
3 193 238 244 
3 172 193 244 
3 262 172 244 
3 177 194 159 
3 219 194 177 
3 194 220 174 
3 194 174 159 
3 175 172 262 
3 160 175 245 
3 245 721 160 
3 222 219 177 
3 240 219 751 
3 195 721 196 
3 196 197 195 
3 224 198 199 
3 246 200 197 
3 246 202 200 
3 224 199 225 
3 247 202 246 
3 247 201 202 
3 204 180 201 
3 204 181 180 
3 205 228 206 
3 184 207 208 
3 208 209 184 
3 210 184 209 
3 209 187 210 
3 168 167 229 
3 168 229 211 
3 212 168 211 
3 212 211 213 
3 214 188 213 
3 188 214 216 
3 215 188 216 
3 216 231 215 
3 257 217 156 
3 257 156 233 
3 237 217 257 
3 191 190 241 
3 240 194 219 
3 194 240 220 
3 222 221 219 
3 196 721 722 
3 724 196 722 
3 197 196 724 
3 223 198 224 
3 221 222 198 
3 221 198 223 
3 266 246 197 
3 266 197 724 
3 224 225 267 
3 269 201 247 
3 267 225 248 
3 269 271 204 
3 269 204 201 
3 181 204 271 
3 271 227 181 
3 227 228 205 
3 227 749 181 
3 207 206 208 
3 187 209 249 
3 167 187 249 
3 229 167 249 
3 251 229 275 
3 211 229 251 
3 230 213 251 
3 213 211 251 
3 214 213 230 
3 216 214 277 
3 255 232 231 
3 255 231 254 
3 277 231 216 
3 254 231 277 
3 233 232 255 
3 234 233 255 
3 234 257 233 
3 258 236 235 
3 235 236 237 
3 257 235 237 
3 258 218 236 
3 238 191 239 
3 244 238 239 
3 220 240 261 
3 261 241 220 
3 191 241 242 
3 239 191 242 
3 243 244 239 
3 244 243 262 
3 175 262 264 
3 264 245 175 
3 265 245 264 
3 268 223 224 
3 314 221 223 
3 246 266 284 
3 268 224 267 
3 284 286 247 
3 284 247 246 
3 287 267 248 
3 286 269 247 
3 288 203 226 
3 248 203 288 
3 248 288 287 
3 228 227 320 
3 208 206 295 
3 208 295 272 
3 209 208 272 
3 209 272 274 
3 249 209 274 
3 249 274 250 
3 229 249 250 
3 229 250 275 
3 251 275 298 
3 251 298 230 
3 214 230 252 
3 214 252 277 
3 253 255 254 
3 253 234 255 
3 256 257 234 
3 258 235 303 
3 256 235 257 
3 303 235 256 
3 307 218 258 
3 726 218 307 
3 259 240 751 
3 259 261 240 
3 260 261 259 
3 241 261 310 
3 241 310 242 
3 239 242 281 
3 239 281 243 
3 262 243 263 
3 264 262 263 
3 282 264 263 
3 265 264 282 
3 315 722 265 
3 315 724 722 
3 723 266 724 
3 318 266 723 
3 267 333 268 
3 284 266 318 
3 267 287 333 
3 290 269 286 
3 291 288 226 
3 290 270 271 
3 290 271 269 
3 227 271 270 
3 270 320 227 
3 206 228 725 
3 725 295 206 
3 272 295 294 
3 272 294 273 
3 274 272 273 
3 274 273 296 
3 250 274 296 
3 250 296 275 
3 230 298 276 
3 230 276 252 
3 300 277 252 
3 302 253 254 
3 302 254 300 
3 254 277 300 
3 278 234 253 
3 278 256 234 
3 303 279 258 
3 307 258 279 
3 305 280 306 
3 261 260 310 
3 242 310 311 
3 242 311 281 
3 243 281 330 
3 243 330 263 
3 358 282 263 
3 265 282 283 
3 283 315 265 
3 730 314 223 
3 723 315 728 
3 727 318 723 
3 730 223 268 
3 285 284 318 
3 317 318 727 
3 285 286 284 
3 286 334 290 
3 292 288 291 
3 287 288 292 
3 289 270 290 
3 334 289 290 
3 338 291 319 
3 292 291 338 
3 293 270 289 
3 293 320 270 
3 295 725 322 
3 322 294 295 
3 275 296 323 
3 275 323 297 
3 298 275 297 
3 298 297 276 
3 299 252 276 
3 301 300 299 
3 300 252 299 
3 302 300 301 
3 326 302 301 
3 326 347 278 
3 326 278 302 
3 302 278 253 
3 327 303 304 
3 304 303 256 
3 278 304 256 
3 347 304 278 
3 309 279 327 
3 327 279 303 
3 305 306 308 
3 309 307 279 
3 308 307 309 
3 310 260 353 
3 353 311 310 
3 355 311 353 
3 358 263 330 
3 312 259 767 
3 312 260 259 
3 359 282 358 
3 283 282 359 
3 316 283 359 
3 313 314 730 
3 753 314 313 
3 728 315 283 
3 728 283 316 
3 729 313 730 
3 317 285 318 
3 366 287 368 
3 333 287 366 
3 285 334 286 
3 317 334 285 
3 368 287 292 
3 338 319 339 
3 321 725 320 
3 293 321 320 
3 372 321 293 
3 725 321 322 
3 294 322 340 
3 341 294 340 
3 273 294 341 
3 343 273 341 
3 296 273 343 
3 323 296 343 
3 297 323 378 
3 324 297 378 
3 276 297 324 
3 325 299 324 
3 299 276 324 
3 301 299 325 
3 344 301 325 
3 326 301 344 
3 347 346 304 
3 346 327 304 
3 327 351 309 
3 384 329 328 
3 352 384 328 
3 352 328 305 
3 352 305 308 
3 351 352 308 
3 350 352 351 
3 308 309 351 
3 280 305 328 
3 356 311 355 
3 281 311 356 
3 330 281 356 
3 752 312 767 
3 260 312 386 
3 260 386 353 
3 330 356 357 
3 358 330 357 
3 389 752 753 
3 331 728 316 
3 727 728 331 
3 313 729 332 
3 313 332 389 
3 364 727 331 
3 364 317 727 
3 333 366 729 
3 391 335 364 
3 335 334 317 
3 394 334 335 
3 368 292 337 
3 394 336 289 
3 394 289 334 
3 337 292 338 
3 337 338 370 
3 336 293 289 
3 370 338 339 
3 339 731 374 
3 321 372 375 
3 322 321 375 
3 322 375 340 
3 341 340 397 
3 341 397 342 
3 343 341 342 
3 343 342 377 
3 323 343 377 
3 323 377 378 
3 324 378 401 
3 325 324 401 
3 348 326 344 
3 345 346 347 
3 348 345 347 
3 347 326 348 
3 349 351 327 
3 350 351 349 
3 384 382 329 
3 405 384 352 
3 352 350 405 
3 733 386 312 
3 353 386 354 
3 353 354 355 
3 356 355 408 
3 356 408 357 
3 358 357 388 
3 388 359 358 
3 389 407 752 
3 360 359 388 
3 316 360 363 
3 316 359 360 
3 363 331 316 
3 361 362 363 
3 414 332 729 
3 389 753 313 
3 362 331 363 
3 364 331 362 
3 391 364 362 
3 367 729 366 
3 414 729 367 
3 364 335 317 
3 365 368 337 
3 367 366 368 
3 367 368 365 
3 419 394 335 
3 337 370 369 
3 365 337 369 
3 371 293 336 
3 754 370 339 
3 369 370 754 
3 371 422 372 
3 371 372 293 
3 754 339 374 
3 422 375 372 
3 340 375 376 
3 340 376 397 
3 342 397 427 
3 342 427 399 
3 377 342 399 
3 377 399 398 
3 378 377 398 
3 401 378 398 
3 379 325 401 
3 344 325 379 
3 380 344 379 
3 403 348 380 
3 348 344 380 
3 404 346 345 
3 403 345 348 
3 383 381 382 
3 383 382 384 
3 385 383 384 
3 384 405 385 
3 733 354 386 
3 387 354 733 
3 355 354 409 
3 355 409 408 
3 410 357 408 
3 388 357 410 
3 407 732 752 
3 388 410 411 
3 360 388 411 
3 443 363 360 
3 361 363 443 
3 413 332 414 
3 413 389 332 
3 389 413 407 
3 361 416 362 
3 391 362 416 
3 414 367 390 
3 392 391 416 
3 392 419 391 
3 419 335 391 
3 390 367 365 
3 394 419 393 
3 420 365 369 
3 393 421 336 
3 393 336 394 
3 371 336 421 
3 395 754 374 
3 375 422 396 
3 395 374 373 
3 376 375 396 
3 425 376 396 
3 397 376 425 
3 427 397 425 
3 402 398 428 
3 398 399 428 
3 400 401 402 
3 401 398 402 
3 379 401 400 
3 430 379 400 
3 470 380 430 
3 380 379 430 
3 403 380 470 
3 404 345 469 
3 405 435 385 
3 435 405 350 
3 406 435 350 
3 432 435 406 
3 350 349 406 
3 433 383 434 
3 381 383 433 
3 383 385 434 
3 409 354 387 
3 412 732 407 
3 412 439 732 
3 439 387 733 
3 409 387 474 
3 408 409 474 
3 408 474 473 
3 410 408 473 
3 443 360 411 
3 479 412 407 
3 479 407 413 
3 443 417 361 
3 416 361 417 
3 414 390 415 
3 413 414 415 
3 444 416 417 
3 392 416 444 
3 483 392 444 
3 447 390 365 
3 418 390 447 
3 415 390 418 
3 448 393 419 
3 392 448 419 
3 483 448 392 
3 447 365 420 
3 450 393 448 
3 450 421 393 
3 454 421 450 
3 369 754 755 
3 420 369 755 
3 454 455 421 
3 422 371 455 
3 423 396 422 
3 455 423 422 
3 395 373 424 
3 395 424 756 
3 396 423 460 
3 425 396 460 
3 424 373 458 
3 425 460 426 
3 427 425 426 
3 427 426 465 
3 399 427 465 
3 399 465 428 
3 429 402 428 
3 400 429 431 
3 400 402 429 
3 430 400 431 
3 469 403 470 
3 758 432 406 
3 406 404 758 
3 472 437 433 
3 433 434 472 
3 385 436 434 
3 436 385 435 
3 432 436 435 
3 438 387 439 
3 505 438 439 
3 474 387 734 
3 475 410 473 
3 442 410 475 
3 411 410 442 
3 480 412 479 
3 480 505 439 
3 480 439 412 
3 442 475 477 
3 477 440 441 
3 477 441 442 
3 442 441 443 
3 442 443 411 
3 417 443 441 
3 415 445 413 
3 413 445 479 
3 513 417 441 
3 513 441 440 
3 444 417 513 
3 415 418 481 
3 415 481 445 
3 447 420 451 
3 446 447 451 
3 418 447 446 
3 483 701 448 
3 701 449 450 
3 448 701 450 
3 454 450 449 
3 451 420 755 
3 451 755 452 
3 453 452 755 
3 453 755 756 
3 454 484 455 
3 423 455 456 
3 424 457 756 
3 460 423 456 
3 458 457 424 
3 459 457 458 
3 529 457 459 
3 426 460 488 
3 463 459 458 
3 485 459 463 
3 485 529 459 
3 461 426 488 
3 465 426 461 
3 462 485 463 
3 464 485 462 
3 466 465 461 
3 428 465 466 
3 429 428 466 
3 468 467 492 
3 468 431 467 
3 430 431 468 
3 495 470 468 
3 495 468 492 
3 470 430 468 
3 469 470 495 
3 494 469 495 
3 496 498 758 
3 496 758 757 
3 503 436 471 
3 498 471 432 
3 432 758 498 
3 502 504 437 
3 437 472 502 
3 503 472 434 
3 434 436 503 
3 473 474 734 
3 475 473 506 
3 514 505 480 
3 505 554 438 
3 507 438 554 
3 734 438 507 
3 510 475 506 
3 477 475 510 
3 476 477 510 
3 440 477 476 
3 445 478 479 
3 479 478 514 
3 479 514 480 
3 444 513 516 
3 445 481 558 
3 445 558 478 
3 516 482 483 
3 516 483 444 
3 418 446 518 
3 418 518 481 
3 482 701 483 
3 449 701 517 
3 452 446 451 
3 449 520 454 
3 517 520 449 
3 484 520 523 
3 484 454 520 
3 456 455 484 
3 525 756 457 
3 453 756 525 
3 759 456 484 
3 460 456 528 
3 527 525 529 
3 525 457 529 
3 529 485 532 
3 487 488 486 
3 487 486 533 
3 461 488 487 
3 532 485 464 
3 534 487 533 
3 489 487 534 
3 489 466 461 
3 489 461 487 
3 490 489 534 
3 429 466 489 
3 490 538 467 
3 490 467 431 
3 431 429 490 
3 492 538 540 
3 492 467 538 
3 493 492 540 
3 495 492 493 
3 493 543 494 
3 494 495 493 
3 545 544 498 
3 545 496 543 
3 498 496 545 
3 496 494 543 
3 549 501 503 
3 549 503 471 
3 544 549 471 
3 497 549 544 
3 471 498 544 
3 500 547 499 
3 500 502 548 
3 504 502 500 
3 548 472 501 
3 502 472 548 
3 472 503 501 
3 514 551 552 
3 514 552 505 
3 554 505 552 
3 507 554 553 
3 506 507 508 
3 510 506 508 
3 510 508 509 
3 476 510 509 
3 512 440 476 
3 511 440 512 
3 513 440 511 
3 558 761 478 
3 478 761 551 
3 478 551 514 
3 511 515 516 
3 511 516 513 
3 558 481 519 
3 481 518 519 
3 515 562 482 
3 515 482 516 
3 517 482 562 
3 446 452 521 
3 561 446 521 
3 518 446 561 
3 518 561 519 
3 562 563 517 
3 520 517 563 
3 524 452 453 
3 521 452 524 
3 521 524 522 
3 523 520 563 
3 759 484 523 
3 525 524 453 
3 526 524 525 
3 526 522 524 
3 523 760 759 
3 527 564 525 
3 525 564 526 
3 488 528 486 
3 532 527 529 
3 531 564 527 
3 531 527 532 
3 530 532 464 
3 530 531 532 
3 567 531 530 
3 568 534 533 
3 536 530 464 
3 569 530 536 
3 569 567 530 
3 535 534 568 
3 490 534 535 
3 491 569 536 
3 573 569 491 
3 539 538 535 
3 538 490 535 
3 537 573 491 
3 540 538 539 
3 574 540 539 
3 577 540 574 
3 493 540 577 
3 542 541 545 
3 542 543 577 
3 545 543 542 
3 543 493 577 
3 547 586 583 
3 547 583 585 
3 586 587 584 
3 541 497 544 
3 544 545 541 
3 550 585 546 
3 547 585 550 
3 499 547 550 
3 547 500 586 
3 586 548 587 
3 500 548 586 
3 587 501 588 
3 548 501 587 
3 588 549 497 
3 501 549 588 
3 592 552 551 
3 554 552 592 
3 594 554 592 
3 553 554 594 
3 555 553 594 
3 508 553 555 
3 509 508 555 
3 476 509 512 
3 551 761 556 
3 551 556 592 
3 555 594 636 
3 555 636 595 
3 509 555 595 
3 509 595 597 
3 512 509 597 
3 512 597 763 
3 512 763 557 
3 515 511 557 
3 558 519 761 
3 761 599 559 
3 761 559 556 
3 562 515 702 
3 560 561 521 
3 561 560 602 
3 599 561 602 
3 519 561 599 
3 702 604 562 
3 563 562 604 
3 522 560 521 
3 601 560 522 
3 606 563 604 
3 523 563 606 
3 523 605 760 
3 606 605 523 
3 526 564 607 
3 565 760 605 
3 486 760 565 
3 613 607 564 
3 613 564 531 
3 566 565 611 
3 533 565 566 
3 533 486 565 
3 567 613 531 
3 568 566 735 
3 568 533 566 
3 570 567 569 
3 570 612 567 
3 571 735 615 
3 571 615 572 
3 571 568 735 
3 535 568 571 
3 573 570 569 
3 762 570 573 
3 618 571 572 
3 618 539 571 
3 539 535 571 
3 619 762 537 
3 574 618 625 
3 574 625 624 
3 539 618 574 
3 619 537 575 
3 575 738 619 
3 738 578 576 
3 577 624 542 
3 574 624 577 
3 578 738 737 
3 632 583 582 
3 584 589 579 
3 584 579 582 
3 589 590 633 
3 589 633 579 
3 590 591 633 
3 703 591 541 
3 541 542 703 
3 581 739 546 
3 581 585 632 
3 546 585 581 
3 582 583 584 
3 585 583 632 
3 584 587 589 
3 583 586 584 
3 589 588 590 
3 587 588 589 
3 590 497 591 
3 588 497 590 
3 497 541 591 
3 593 592 556 
3 594 592 593 
3 636 594 593 
3 595 636 742 
3 637 595 742 
3 597 595 637 
3 556 559 635 
3 593 556 635 
3 637 742 596 
3 764 597 598 
3 763 764 740 
3 702 557 740 
3 602 600 599 
3 599 600 559 
3 740 640 702 
3 604 702 640 
3 601 642 602 
3 642 600 602 
3 601 602 560 
3 603 640 644 
3 603 604 640 
3 606 604 603 
3 648 522 526 
3 522 648 601 
3 601 648 649 
3 601 649 642 
3 647 603 644 
3 603 647 608 
3 606 603 608 
3 605 606 608 
3 607 648 526 
3 610 648 607 
3 608 647 651 
3 611 608 651 
3 611 605 608 
3 565 605 611 
3 609 607 613 
3 609 610 607 
3 736 651 653 
3 611 651 736 
3 566 611 736 
3 612 609 613 
3 655 609 612 
3 615 736 653 
3 615 653 616 
3 614 612 570 
3 614 655 612 
3 572 615 616 
3 572 616 660 
3 762 614 570 
3 617 614 762 
3 617 622 614 
3 660 667 623 
3 660 623 572 
3 572 623 625 
3 572 625 618 
3 617 762 619 
3 619 620 617 
3 738 620 619 
3 620 621 622 
3 620 622 617 
3 631 623 667 
3 741 623 631 
3 624 625 741 
3 620 738 576 
3 576 626 621 
3 627 628 629 
3 765 631 630 
3 741 631 765 
3 624 741 703 
3 627 632 628 
3 581 632 627 
3 628 582 669 
3 632 582 628 
3 669 579 673 
3 582 579 669 
3 673 633 630 
3 579 633 673 
3 591 703 765 
3 634 635 559 
3 638 635 634 
3 593 635 638 
3 743 593 638 
3 636 593 743 
3 598 637 596 
3 559 600 634 
3 634 674 638 
3 743 638 639 
3 596 743 639 
3 596 639 677 
3 598 596 677 
3 598 677 643 
3 764 598 643 
3 764 643 641 
3 740 764 641 
3 640 740 641 
3 645 600 642 
3 600 645 680 
3 600 680 634 
3 634 680 674 
3 678 641 643 
3 644 641 678 
3 644 640 641 
3 642 649 645 
3 646 680 645 
3 646 645 649 
3 644 678 685 
3 647 644 685 
3 610 649 648 
3 744 649 610 
3 650 685 689 
3 650 647 685 
3 651 647 650 
3 656 610 609 
3 744 610 656 
3 690 744 656 
3 654 650 689 
3 654 689 652 
3 654 651 650 
3 653 651 654 
3 655 656 609 
3 657 656 655 
3 657 690 656 
3 696 654 652 
3 659 654 696 
3 659 653 654 
3 616 653 659 
3 663 655 614 
3 657 655 663 
3 693 657 663 
3 664 696 658 
3 659 696 664 
3 660 616 664 
3 664 616 659 
3 663 614 622 
3 622 661 663 
3 661 662 693 
3 661 693 663 
3 700 666 745 
3 666 672 658 
3 666 658 695 
3 667 664 658 
3 667 658 672 
3 660 664 667 
3 661 622 621 
3 665 662 661 
3 621 665 661 
3 629 665 621 
3 698 662 665 
3 670 698 665 
3 700 698 670 
3 668 700 670 
3 666 700 668 
3 671 666 668 
3 672 666 671 
3 631 667 672 
3 670 669 668 
3 628 669 670 
3 668 673 671 
3 669 673 668 
3 671 630 672 
3 673 630 671 
3 630 631 672 
3 676 638 674 
3 639 638 676 
3 675 639 676 
3 677 639 675 
3 679 704 674 
3 680 679 674 
3 676 674 704 
3 705 676 704 
3 675 676 705 
3 682 675 705 
3 677 675 682 
3 681 677 682 
3 681 643 677 
3 678 643 681 
3 646 679 680 
3 708 704 679 
3 706 705 704 
3 686 682 705 
3 681 682 683 
3 681 683 684 
3 678 681 684 
3 685 678 684 
3 707 646 744 
3 683 686 687 
3 688 683 687 
3 684 683 688 
3 689 684 688 
3 689 685 684 
3 690 707 744 
3 691 707 690 
3 709 707 691 
3 710 709 691 
3 712 709 692 
3 711 687 712 
3 688 687 713 
3 657 691 690 
3 694 691 657 
3 710 691 694 
3 715 710 694 
3 714 692 710 
3 652 713 766 
3 696 652 766 
3 693 694 657 
3 697 694 693 
3 715 694 697 
3 699 715 697 
3 714 715 699 
3 745 714 699 
3 695 716 745 
3 766 716 695 
3 658 766 695 
3 658 696 766 
3 697 693 662 
3 697 698 699 
3 662 698 697 
3 699 700 745 
3 698 700 699 
3 745 666 695 
3 482 517 701 
3 512 557 511 
3 557 702 515 
3 624 703 542 
3 576 621 620 
3 708 679 646 
3 706 704 708 
3 686 705 706 
3 683 682 686 
3 708 646 707 
3 709 708 707 
3 706 708 709 
3 712 706 709 
3 686 706 712 
3 687 686 712 
3 692 709 710 
3 711 712 692 
3 713 687 711 
3 714 710 715 
3 711 692 714 
3 716 711 714 
3 717 10 18 
3 10 717 11 
3 747 11 30 
3 717 30 11 
3 64 30 718 
3 29 77 718 
3 67 41 78 
3 41 67 68 
3 52 117 85 
3 113 75 114 
3 75 61 114 
3 85 117 103 
3 100 719 101 
3 101 719 132 
3 117 133 103 
3 163 719 100 
3 719 720 165 
3 245 722 721 
3 722 245 265 
3 723 724 315 
3 228 320 725 
3 726 307 306 
3 727 723 728 
3 333 730 268 
3 729 730 333 
3 421 455 371 
3 349 404 406 
3 732 439 733 
3 734 387 438 
3 432 471 436 
3 506 734 507 
3 429 489 490 
3 612 613 567 
3 735 566 736 
3 575 737 738 
3 580 739 578 
3 739 626 576 
3 626 739 581 
3 598 597 637 
3 763 740 557 
3 615 735 736 
3 741 625 623 
3 629 626 627 
3 626 629 621 
3 703 741 765 
3 627 626 581 
3 596 742 743 
3 742 636 743 
3 646 649 744 
3 665 629 670 
3 629 628 670 
3 745 716 714 
3 747 12 11 
3 24 32 34 
3 747 32 12 
3 102 117 84 
3 182 748 720 
3 749 205 748 
3 748 205 207 
3 206 207 205 
3 227 205 749 
3 750 221 314 
3 219 221 750 
3 750 751 219 
3 767 751 750 
3 753 767 750 
3 752 767 753 
3 349 327 346 
3 732 312 752 
3 312 732 733 
3 404 349 346 
3 345 403 469 
3 755 754 395 
3 755 395 756 
3 757 758 404 
3 494 496 757 
3 404 469 757 
3 494 757 469 
3 473 734 506 
3 528 456 759 
3 760 528 759 
3 528 488 460 
3 508 507 553 
3 528 760 486 
3 519 599 761 
3 537 762 573 
3 576 578 739 
3 763 597 764 
3 630 633 765 
3 633 591 765 
3 652 689 688 
3 713 711 716 
3 766 713 716 
3 71 89 108 
3 306 307 308 
3 751 767 259 
3 753 750 314 
3 713 652 688 
