ply
format ascii 1.0
comment Created by CloudCompare v2.13.2 (Kharkiv - Jul  6 2024)
comment Created 2024-12-03T10:03:19
obj_info Generated by CloudCompare!
element vertex 33
property float x
property float y
property float z
element face 49
property list uchar int vertex_indices
end_header
249.335114 -54.842659 133.104630 
249.341782 -55.764149 134.298401 
246.414856 -51.064438 134.370712 
246.261093 -51.841934 136.064240 
248.288681 -55.232296 135.946426 
247.645538 -52.654694 134.480255 
247.549896 -53.578056 135.941772 
246.217010 -53.642193 137.126236 
247.107666 -54.790676 136.886688 
249.184814 -54.903660 131.370483 
248.658142 -53.696133 132.842682 
248.681381 -54.163162 134.547623 
248.481354 -56.962185 135.574295 
249.592545 -56.159401 132.352142 
249.081543 -57.370888 131.543228 
247.127838 -56.363503 136.853699 
249.114410 -57.576900 133.453018 
247.464066 -52.286995 132.735641 
244.396606 -54.409252 138.107315 
248.266022 -53.497711 130.955460 
248.350616 -54.752312 129.237015 
249.033997 -56.329350 130.356277 
248.021790 -56.244705 128.690063 
248.172379 -58.461750 131.898071 
245.869949 -55.456837 137.582855 
246.752396 -58.095856 136.217667 
247.675980 -57.908264 129.805710 
247.321625 -59.112202 133.367035 
247.775436 -58.390221 134.893051 
244.732529 -52.472504 137.566513 
246.409851 -59.375149 131.431351 
245.366119 -57.337132 137.362823 
245.962692 -59.360756 134.852615 
3 1 16 13 
3 0 1 13 
3 13 16 14 
3 2 3 5 
3 17 2 5 
3 6 5 3 
3 7 6 3 
3 10 5 11 
3 6 4 11 
3 5 6 11 
3 8 6 7 
3 4 6 8 
3 9 10 0 
3 0 10 11 
3 0 11 1 
3 4 12 1 
3 4 1 11 
3 15 4 8 
3 12 4 15 
3 21 9 13 
3 14 21 13 
3 13 9 0 
3 16 1 12 
3 25 12 15 
3 14 23 26 
3 21 14 26 
3 16 27 23 
3 14 16 23 
3 28 27 16 
3 12 28 16 
3 28 12 25 
3 3 29 7 
3 29 18 7 
3 17 10 19 
3 10 17 5 
3 7 18 24 
3 8 7 24 
3 19 10 9 
3 19 9 20 
3 8 24 15 
3 20 21 22 
3 21 20 9 
3 21 26 22 
3 26 23 30 
3 23 27 30 
3 15 24 31 
3 15 31 25 
3 32 28 25 
3 32 27 28 
