ply
format ascii 1.0
comment Created by CloudCompare v2.13.2 (Kharkiv - Jul  6 2024)
comment Created 2024-11-19T13:55:22
obj_info Generated by CloudCompare!
element vertex 154
property float x
property float y
property float z
element face 244
property list uchar int vertex_indices
end_header
236.262787 -16.866671 117.316002 
235.856369 -16.563099 119.012184 
233.716019 -19.461136 108.275398 
234.420425 -16.039909 117.933975 
235.162521 -16.197849 117.971230 
234.795547 -16.300457 116.761925 
232.359146 -20.592979 107.530243 
233.628006 -21.940195 106.995300 
231.719620 -19.167141 108.591408 
233.106644 -18.402388 109.621529 
234.184143 -17.372877 112.606262 
232.350906 -17.437439 111.408104 
232.469345 -16.763062 113.333061 
235.362701 -17.498865 113.679100 
234.175690 -16.724018 114.655998 
233.502350 -16.041824 117.912025 
234.394745 -16.091652 118.944351 
233.402344 -24.950361 107.591057 
236.404724 -17.291718 120.323555 
235.861694 -17.784166 121.572205 
230.970871 -18.140709 109.867531 
230.875000 -16.812555 112.605698 
230.823074 -16.427809 113.991257 
233.104080 -16.179827 116.268372 
232.485489 -16.380518 114.802612 
233.614014 -23.394464 106.974739 
232.589432 -17.233330 121.553818 
234.740494 -16.664150 120.666367 
235.869247 -18.989422 122.636673 
235.763489 -20.534967 123.897499 
228.266968 -20.189764 108.141884 
230.235382 -20.160980 107.945366 
229.102570 -21.157557 107.633148 
230.030762 -17.268093 111.319756 
230.556732 -21.274462 107.403534 
231.858536 -22.271519 107.071701 
229.540085 -19.053856 108.812576 
227.434647 -19.021431 108.961327 
229.245316 -16.651642 112.823708 
231.516068 -23.904146 107.282196 
230.109253 -16.666222 119.384705 
231.352463 -16.163967 117.576973 
229.614700 -24.306984 107.692513 
231.485413 -25.453438 108.076653 
232.575623 -16.350296 119.624352 
234.294846 -17.953453 122.311775 
234.161179 -19.294819 123.562721 
235.680054 -24.130199 124.932854 
235.670059 -30.984064 120.704918 
227.427505 -21.798037 107.757599 
226.312943 -20.220488 108.336098 
226.746902 -17.966270 110.008545 
228.781982 -18.029406 109.952477 
227.992386 -17.159883 111.349388 
227.170425 -16.505104 112.976654 
230.980148 -17.026211 120.739853 
232.350281 -18.532770 122.839630 
232.130096 -19.965185 124.047272 
235.684937 -22.253914 124.663063 
233.772903 -22.667191 125.257866 
233.537750 -29.551588 112.012589 
235.837692 -31.338839 119.284004 
228.781189 -16.256561 114.638138 
229.537308 -16.178864 116.354424 
228.053513 -23.335073 107.669586 
227.833023 -24.571613 108.099518 
229.579865 -25.701893 108.508301 
229.342438 -27.016739 109.587509 
231.385315 -26.766430 109.217567 
230.896423 -28.010204 110.422562 
232.381821 -28.889141 111.300583 
233.916214 -20.909119 124.654350 
231.901474 -21.602160 124.889198 
233.933243 -24.258224 125.433159 
233.663376 -30.561907 113.128937 
234.458542 -31.335440 114.874451 
230.617950 -17.994465 121.977264 
229.115753 -17.464966 120.743530 
230.344482 -19.246883 123.068268 
228.739090 -28.311180 110.784210 
230.141937 -20.691311 124.055283 
229.422867 -30.496529 112.967377 
231.789764 -23.597298 125.397217 
234.705704 -31.825230 116.634247 
234.588211 -31.946579 118.357582 
235.332779 -30.343624 122.075775 
227.514969 -16.254063 116.391357 
231.688263 -30.097885 112.262291 
231.468353 -30.860901 113.357620 
232.462448 -31.362545 114.426193 
232.978531 -25.345163 125.581955 
234.196198 -31.759315 119.980888 
232.855118 -32.128838 119.028954 
233.740051 -28.148190 124.654755 
233.823975 -26.845610 125.289413 
233.867981 -31.130013 121.574448 
232.535416 -27.592838 125.088364 
226.355225 -23.317924 107.937721 
225.954758 -24.771152 108.447708 
227.657684 -25.935274 108.924644 
228.554596 -18.647701 121.950531 
232.357147 -31.917604 115.894188 
230.942841 -25.321129 125.383965 
232.534683 -32.201061 117.605301 
232.386215 -30.872684 122.121986 
233.892868 -29.723680 123.355339 
227.315247 -27.333580 110.039063 
226.948395 -28.513018 111.148773 
228.362869 -19.949245 122.957344 
229.975983 -22.300777 124.669571 
230.322510 -31.339199 114.798599 
228.643143 -31.265461 115.749199 
228.312820 -30.840708 114.272820 
230.234375 -26.750189 125.023613 
229.280365 -25.879208 124.808212 
231.000565 -31.983877 118.991020 
231.989319 -26.494473 125.478378 
232.102020 -31.679745 120.597893 
232.680206 -28.749146 124.308083 
231.801987 -29.887987 123.270493 
231.376709 -28.584911 124.382408 
225.865128 -29.420368 112.312668 
229.604401 -24.074244 124.891434 
227.207535 -30.447418 113.455421 
226.653992 -31.092787 115.402443 
228.437775 -28.694897 123.071312 
229.191193 -27.428535 124.296997 
227.993240 -26.891842 123.948914 
230.064728 -31.847689 117.131851 
227.765594 -30.438454 120.416451 
229.850052 -31.113718 120.721764 
228.590744 -29.995239 121.738571 
229.466553 -28.584782 123.738625 
230.391571 -29.550484 123.292313 
229.609619 -29.995789 122.406044 
231.017395 -27.449257 125.010895 
229.909302 -27.438946 124.676003 
230.884872 -30.764553 121.950203 
227.686172 -31.277742 117.325996 
228.818924 -31.392475 118.954544 
229.531616 -27.529907 124.447166 
230.135117 -28.250839 124.300690 
229.534973 -27.864168 124.293129 
233.641586 -26.394636 108.882301 
233.119766 -27.590710 110.254822 
235.185120 -27.862419 124.404083 
236.117203 -28.974249 123.000832 
235.332092 -25.927864 125.075760 
230.100418 -29.368982 111.593872 
227.923874 -29.511799 112.010010 
231.151810 -16.186131 115.595505 
228.204422 -16.975933 119.417244 
228.843277 -16.416998 117.897964 
229.617493 -22.585011 107.351219 
3 1 0 4 
3 4 5 3 
3 16 4 3 
3 4 0 5 
3 4 16 1 
3 34 31 6 
3 8 31 36 
3 6 31 8 
3 6 7 35 
3 34 6 35 
3 6 8 2 
3 9 2 8 
3 10 11 12 
3 35 7 25 
3 14 13 10 
3 12 24 14 
3 14 23 5 
3 5 23 15 
3 3 5 15 
3 15 16 3 
3 44 16 15 
3 16 44 27 
3 16 27 1 
3 18 1 27 
3 18 27 19 
3 8 36 20 
3 11 20 33 
3 21 11 33 
3 8 20 9 
3 11 9 20 
3 12 11 21 
3 21 22 12 
3 12 22 24 
3 150 24 22 
3 35 25 39 
3 10 12 14 
3 23 14 24 
3 23 24 150 
3 15 23 41 
3 41 44 15 
3 39 25 17 
3 26 27 44 
3 27 26 45 
3 19 27 45 
3 19 45 28 
3 32 31 34 
3 30 31 32 
3 31 30 36 
3 20 36 52 
3 20 52 33 
3 34 35 153 
3 32 34 153 
3 63 41 150 
3 153 35 39 
3 39 17 43 
3 43 17 143 
3 28 45 46 
3 28 46 29 
3 30 37 36 
3 52 36 37 
3 33 52 53 
3 33 53 38 
3 21 33 38 
3 22 38 62 
3 22 21 38 
3 152 41 63 
3 153 39 42 
3 40 44 41 
3 42 39 43 
3 55 26 44 
3 55 44 40 
3 76 26 55 
3 26 76 56 
3 45 26 56 
3 45 56 46 
3 29 46 71 
3 29 71 58 
3 49 30 32 
3 50 30 49 
3 37 30 50 
3 51 52 37 
3 52 51 53 
3 38 53 54 
3 38 54 62 
3 64 153 42 
3 152 40 41 
3 42 43 66 
3 55 40 77 
3 43 143 68 
3 66 43 68 
3 56 76 78 
3 56 78 57 
3 46 56 57 
3 69 144 70 
3 46 57 71 
3 58 71 59 
3 47 58 59 
3 49 64 97 
3 86 63 62 
3 86 152 63 
3 64 42 65 
3 97 64 65 
3 65 42 66 
3 66 68 67 
3 67 68 69 
3 69 70 148 
3 71 57 72 
3 87 148 70 
3 87 70 60 
3 71 72 59 
3 74 88 87 
3 74 87 60 
3 73 47 59 
3 89 74 75 
3 88 74 89 
3 89 75 101 
3 47 73 147 
3 101 75 83 
3 61 91 84 
3 91 61 48 
3 105 85 146 
3 151 77 40 
3 65 66 99 
3 100 76 77 
3 99 66 67 
3 76 100 78 
3 69 79 67 
3 57 78 80 
3 148 79 69 
3 57 80 72 
3 148 87 81 
3 59 72 82 
3 82 73 59 
3 90 73 82 
3 147 90 94 
3 147 73 90 
3 103 101 83 
3 84 92 103 
3 83 84 103 
3 84 91 92 
3 94 145 147 
3 95 48 85 
3 91 48 95 
3 95 85 105 
3 97 65 98 
3 98 65 99 
3 99 67 106 
3 78 100 108 
3 106 67 79 
3 78 108 80 
3 72 80 109 
3 72 109 82 
3 81 87 88 
3 81 88 110 
3 102 90 82 
3 110 88 89 
3 110 89 101 
3 94 90 116 
3 91 117 92 
3 145 93 105 
3 94 116 96 
3 93 94 96 
3 145 94 93 
3 117 91 95 
3 105 93 118 
3 118 93 96 
3 123 149 81 
3 82 109 122 
3 122 102 82 
3 110 101 128 
3 90 102 116 
3 128 101 103 
3 103 92 115 
3 128 103 115 
3 92 117 115 
3 104 117 95 
3 105 119 104 
3 95 105 104 
3 105 118 119 
3 106 79 107 
3 121 107 149 
3 112 123 81 
3 112 81 110 
3 111 112 110 
3 122 114 102 
3 111 110 128 
3 113 116 102 
3 114 113 102 
3 126 113 114 
3 139 128 115 
3 115 117 130 
3 139 115 130 
3 130 117 137 
3 116 113 135 
3 96 116 135 
3 137 117 104 
3 137 104 119 
3 118 120 119 
3 135 120 96 
3 120 118 96 
3 124 112 111 
3 123 112 124 
3 125 126 127 
3 138 111 128 
3 128 139 138 
3 139 130 129 
3 130 134 131 
3 130 131 129 
3 134 132 125 
3 134 125 131 
3 140 126 132 
3 125 132 126 
3 140 113 126 
3 136 113 140 
3 130 137 134 
3 133 132 134 
3 137 133 134 
3 133 141 132 
3 135 113 136 
3 141 135 136 
3 133 137 119 
3 133 120 141 
3 119 120 133 
3 120 135 141 
3 124 111 138 
3 140 132 142 
3 136 140 142 
3 142 132 141 
3 141 136 142 
3 23 150 41 
3 49 32 153 
3 68 143 144 
3 69 68 144 
3 146 145 105 
3 77 76 55 
3 79 148 149 
3 149 148 81 
3 149 107 79 
3 121 149 123 
3 127 126 114 
3 150 62 63 
3 62 150 22 
3 40 152 151 
3 49 153 64 
