ply
format ascii 1.0
comment Created by CloudCompare v2.13.2 (Kharkiv - Jul  6 2024)
comment Created 2024-11-19T13:50:09
obj_info Generated by CloudCompare!
element vertex 244
property float x
property float y
property float z
element face 421
property list uchar int vertex_indices
end_header
16.837090 -12.230728 140.188766 
15.559273 -11.472551 137.761978 
15.972343 -12.990780 138.739288 
16.824135 -14.527214 141.280838 
17.406639 -12.770986 141.814209 
17.469543 -14.352285 142.910751 
14.069565 -11.328305 135.799942 
14.657433 -11.924919 136.616821 
15.527306 -14.651037 138.738388 
16.451096 -13.940546 140.003021 
15.931831 -15.447216 140.011063 
16.600334 -15.684317 141.883316 
18.005165 -14.550176 144.358276 
14.762985 -13.864600 137.373535 
14.802734 -17.681097 139.237656 
17.306847 -15.773859 143.794144 
17.099579 -17.352890 144.702179 
13.028763 -12.174423 134.988281 
12.386688 -10.610882 134.086517 
13.716400 -13.339364 135.977509 
12.616325 -14.378144 135.268661 
14.156853 -18.670082 138.091736 
14.069725 -17.170227 137.670670 
14.826607 -16.015009 138.429062 
16.359566 -17.016037 142.718933 
15.397614 -18.311512 141.355545 
11.780769 -13.052881 134.292374 
12.521439 -16.161818 135.595139 
13.229088 -17.732452 136.536682 
13.575211 -15.611436 136.559937 
14.736763 -19.048027 139.641602 
15.636765 -16.756876 140.535904 
14.882225 -20.149921 140.934555 
16.162666 -18.426863 143.724869 
16.062988 -19.674250 144.685104 
16.944687 -19.061962 145.562347 
19.477661 -28.466894 135.048584 
18.547157 -28.272913 133.798737 
11.594788 -15.236269 134.723145 
12.895309 -19.105452 135.955612 
14.509666 -23.674269 135.121368 
13.713631 -19.866570 136.950119 
14.226479 -22.092777 136.502975 
15.352859 -25.256441 134.625244 
14.158211 -24.286747 133.567764 
14.725769 -25.755199 132.332642 
14.469833 -20.633852 138.548737 
15.623581 -28.940535 127.143272 
15.583160 -28.191612 129.029556 
16.999207 -28.498123 130.810043 
16.559555 -27.592728 132.731674 
15.744293 -26.601660 132.929550 
15.546158 -24.535984 137.066711 
14.930870 -23.745708 136.203461 
14.858231 -22.755720 137.799622 
14.896194 -21.623899 141.532913 
17.369331 -27.607975 134.313354 
16.435387 -26.717733 134.385864 
17.536407 -28.273117 132.767090 
16.796478 -20.610630 146.059509 
18.299103 -27.511162 140.773148 
9.064171 -12.835596 132.986267 
10.444344 -13.975730 133.830444 
10.555000 -16.144188 134.278000 
11.973961 -17.467358 135.238449 
10.911362 -18.209204 134.437698 
12.542122 -21.492037 134.363068 
11.286804 -20.137926 134.096603 
13.272644 -20.859180 135.698334 
12.201759 -19.589386 135.056396 
13.671814 -22.676987 134.762817 
14.181610 -27.213985 129.144928 
15.424553 -27.189072 131.020859 
15.778221 -24.617252 139.255447 
15.198135 -23.359222 138.848526 
16.204811 -25.882195 135.871353 
16.561050 -25.831760 139.631317 
16.550056 -25.887213 137.808746 
15.238266 -23.204000 140.927368 
15.032356 -20.996843 142.931366 
15.563004 -22.320137 144.681351 
15.640182 -20.814325 144.654251 
17.173004 -26.895191 136.123734 
18.205437 -27.789978 135.811050 
17.651733 -27.207123 138.462509 
16.986504 -26.364574 141.073273 
16.033638 -24.926950 141.275253 
16.612022 -22.131310 146.056427 
16.731422 -23.701157 145.624374 
18.892426 -28.165693 136.910049 
17.686432 -26.470291 142.760040 
17.181122 -25.156569 144.536026 
7.412697 -13.859796 132.886841 
9.916054 -18.901041 133.778748 
11.377075 -22.000620 132.938080 
12.906349 -23.237865 133.143036 
12.774673 -26.435215 128.868027 
13.874466 -26.112473 130.567764 
13.378586 -24.776144 131.827820 
11.896973 -23.841211 131.499878 
13.012772 -28.062214 125.782990 
14.242355 -28.056351 127.492249 
15.646805 -24.022421 142.696152 
16.496147 -25.309334 143.003555 
15.186317 -22.597752 143.006683 
15.971855 -23.920954 144.291321 
7.655098 -11.624872 132.221313 
9.038734 -15.000702 133.517410 
7.600189 -16.010052 133.278275 
9.382240 -17.033237 133.807190 
10.362099 -20.444483 133.377289 
9.030388 -19.754307 133.102463 
9.776787 -21.449234 132.411865 
11.716835 -27.642488 125.564919 
10.266754 -27.375813 125.341850 
10.745773 -24.499046 129.934830 
10.358604 -23.055464 131.289200 
12.944160 -27.379112 127.422760 
12.366959 -25.245977 130.173035 
8.218491 -17.964327 133.366623 
7.214127 -19.164024 132.859695 
9.188049 -25.155415 128.590469 
9.371185 -23.843987 130.037842 
9.895142 -26.512459 126.971306 
11.543694 -26.878712 127.137367 
11.171516 -25.788832 128.559204 
4.496536 -10.879795 131.959366 
5.903778 -12.449615 132.372864 
4.163109 -13.204432 132.652802 
5.794662 -14.756665 132.915649 
6.290695 -20.701633 132.105515 
7.104111 -22.358719 131.021545 
8.142113 -20.935268 132.178345 
8.808212 -22.572401 131.104889 
7.891464 -23.852821 129.766769 
5.220016 -19.020620 132.834625 
8.619781 -27.268986 125.404060 
8.007240 -26.384903 127.031784 
0.782753 -10.126295 132.508301 
2.592682 -11.607799 132.483780 
2.822250 -9.217964 131.661362 
4.102287 -15.519232 133.073044 
5.995995 -17.123047 133.116913 
3.970268 -17.510992 133.198715 
5.314728 -22.356419 131.183243 
7.068535 -25.220425 128.469788 
6.093887 -23.891087 129.852936 
6.046951 -26.535107 127.220856 
0.964149 -15.903353 133.767792 
2.223312 -14.149148 133.127441 
4.468025 -20.771814 132.279953 
3.436180 -19.263092 133.063095 
0.752373 -12.467204 133.137894 
2.557198 -16.378124 133.395035 
0.242165 -14.395397 133.710266 
1.316345 -17.608852 133.879669 
2.613297 -17.982868 133.453262 
4.193611 -23.974602 130.337463 
5.511604 -28.086021 124.093552 
6.781662 -27.387697 125.623055 
5.206833 -25.414024 128.703003 
1.699173 -19.540503 133.617218 
3.871521 -22.286304 131.627563 
2.886108 -21.080395 132.626282 
2.691132 -22.913490 131.757278 
3.512161 -28.499670 124.282089 
4.796127 -27.712234 125.860268 
-1.174416 -9.620195 133.005951 
-0.736328 -13.233398 133.848419 
-1.440552 -14.793717 134.570908 
1.422882 -21.678686 133.112854 
0.090919 -18.963390 134.612793 
2.868256 -28.161674 126.134537 
4.140076 -26.886858 127.495888 
3.482666 -25.804535 129.042740 
2.414604 -27.360601 127.842690 
1.317741 -23.512314 132.187027 
0.142464 -20.711134 134.378891 
1.134277 -25.165462 131.070328 
2.532402 -24.651226 130.607132 
-3.316826 -10.660934 134.375549 
-0.228477 -17.311464 134.589081 
-1.849739 -16.769098 135.457428 
0.276253 -24.229153 132.470871 
-1.410583 -18.528259 135.673508 
1.919975 -26.308260 129.445114 
-2.528160 -12.747475 134.658844 
-4.242081 -13.885052 136.173859 
-3.227699 -16.836559 136.561661 
-2.662399 -17.973999 136.556381 
-0.126175 -25.695555 131.623337 
1.217804 -28.640450 126.480232 
0.908073 -27.872684 128.247711 
-0.064049 -22.722296 133.758057 
-1.011543 -27.438541 130.562881 
0.483711 -26.832354 129.930496 
-1.160744 -21.764778 135.392303 
-2.312019 -22.916191 136.384689 
-1.178276 -20.085825 135.687561 
-0.290314 -29.133358 126.830475 
-0.613892 -28.427753 128.707932 
-1.842690 -25.375057 133.970825 
-1.382881 -26.313721 132.342316 
-0.742058 -24.557108 133.244141 
-5.448677 -14.653221 137.461746 
-3.800331 -17.864393 137.594757 
-2.528343 -19.258764 136.873581 
-2.462013 -20.977392 137.041428 
-1.402077 -23.582146 134.797943 
-5.165268 -16.563717 138.208466 
-4.223564 -15.896122 137.022064 
-3.476349 -19.486734 137.904739 
-2.468292 -26.884922 133.119751 
-3.063568 -26.394064 134.552338 
-3.515877 -22.327055 137.905869 
-5.221771 -19.865841 139.213776 
-2.299782 -29.074165 129.268021 
-3.718391 -25.682901 136.163986 
-2.558472 -24.693186 135.586792 
-3.434586 -24.027199 137.124603 
-4.268417 -29.237455 131.741318 
-3.598343 -27.929878 133.264511 
-4.186317 -27.292149 134.959686 
-5.034332 -21.596840 138.924652 
-4.734680 -26.265944 136.452484 
-4.490128 -24.729713 137.492859 
-5.696793 -23.426651 138.236923 
-4.376152 -23.273846 138.202591 
-4.936302 -28.743694 133.384933 
-5.771996 -26.329630 136.420700 
-5.316322 -25.180567 137.368286 
-5.275795 -27.589071 135.258545 
-6.206718 -28.431488 133.960861 
19.448654 -28.357204 138.635132 
-3.020393 -15.250609 135.752060 
-2.679482 -28.178158 131.521545 
-3.976479 -20.541992 138.498352 
14.861618 -21.888000 139.728226 
15.391113 -19.576012 142.970367 
10.775848 -11.720156 133.329315 
-0.810982 -11.469148 133.449951 
-2.095718 -10.687781 133.785782 
-0.468536 -15.864279 134.350189 
-4.790382 -18.580032 138.765366 
3 0 2 9 
3 9 3 4 
3 9 4 0 
3 5 4 3 
3 7 6 19 
3 13 7 19 
3 13 1 7 
3 2 1 13 
3 8 2 13 
3 9 2 8 
3 10 3 9 
3 8 10 9 
3 11 3 10 
3 5 3 11 
3 15 5 11 
3 12 5 15 
3 19 6 17 
3 13 19 29 
3 23 13 29 
3 8 13 23 
3 23 14 31 
3 23 10 8 
3 23 31 10 
3 10 31 11 
3 15 11 24 
3 24 16 15 
3 18 239 26 
3 17 18 26 
3 17 26 20 
3 19 17 20 
3 19 20 29 
3 23 29 22 
3 22 21 14 
3 22 14 23 
3 24 31 25 
3 16 24 33 
3 33 35 16 
3 38 26 62 
3 20 26 38 
3 27 20 38 
3 29 20 27 
3 28 29 27 
3 22 29 28 
3 28 21 22 
3 39 41 28 
3 21 30 14 
3 25 31 14 
3 30 32 25 
3 33 25 238 
3 238 34 33 
3 35 33 34 
3 34 59 35 
3 38 62 63 
3 38 63 64 
3 27 38 64 
3 39 28 64 
3 69 39 64 
3 39 69 68 
3 21 28 41 
3 40 70 44 
3 42 41 68 
3 42 68 70 
3 42 70 40 
3 41 39 68 
3 46 41 42 
3 46 21 41 
3 30 21 46 
3 72 51 45 
3 43 40 44 
3 43 44 45 
3 43 45 51 
3 53 40 43 
3 42 40 53 
3 54 42 53 
3 46 42 54 
3 237 46 54 
3 30 46 32 
3 72 48 49 
3 50 72 49 
3 51 72 50 
3 57 51 50 
3 43 51 57 
3 43 57 75 
3 43 75 52 
3 43 52 53 
3 54 53 52 
3 54 52 74 
3 237 54 74 
3 32 237 55 
3 79 238 32 
3 79 32 55 
3 56 57 50 
3 58 56 50 
3 57 56 82 
3 81 87 59 
3 81 59 34 
3 56 58 37 
3 36 83 37 
3 37 83 56 
3 83 36 89 
3 107 62 61 
3 63 62 107 
3 109 63 107 
3 65 63 109 
3 64 63 65 
3 65 67 69 
3 69 64 65 
3 66 67 94 
3 66 94 95 
3 66 69 67 
3 68 69 66 
3 95 98 44 
3 95 70 66 
3 44 70 95 
3 70 68 66 
3 48 71 101 
3 47 48 101 
3 71 48 72 
3 97 71 72 
3 97 45 98 
3 72 45 97 
3 45 44 98 
3 77 52 75 
3 73 52 77 
3 74 52 73 
3 78 74 73 
3 237 74 78 
3 55 237 78 
3 82 75 57 
3 75 82 77 
3 76 73 77 
3 73 76 86 
3 73 86 78 
3 55 78 104 
3 79 55 104 
3 79 104 80 
3 80 87 81 
3 79 80 81 
3 82 56 83 
3 84 77 82 
3 83 84 82 
3 89 84 83 
3 76 77 84 
3 85 76 84 
3 85 86 76 
3 87 80 88 
3 84 89 233 
3 84 60 85 
3 85 60 90 
3 61 106 92 
3 61 92 107 
3 65 109 93 
3 93 67 65 
3 94 99 95 
3 118 96 97 
3 118 98 99 
3 97 98 118 
3 98 95 99 
3 100 101 117 
3 117 71 96 
3 101 71 117 
3 71 97 96 
3 102 78 86 
3 104 78 102 
3 105 104 102 
3 103 86 85 
3 102 86 103 
3 105 102 103 
3 80 104 105 
3 88 80 105 
3 103 85 90 
3 103 91 105 
3 90 91 103 
3 91 88 105 
3 92 106 127 
3 107 92 108 
3 119 109 108 
3 109 107 108 
3 93 109 119 
3 111 93 119 
3 110 93 111 
3 111 112 110 
3 110 112 94 
3 110 94 67 
3 67 93 110 
3 113 124 114 
3 115 125 118 
3 115 99 116 
3 118 99 115 
3 116 94 112 
3 99 94 116 
3 113 117 124 
3 100 117 113 
3 124 96 125 
3 117 96 124 
3 96 118 125 
3 129 108 92 
3 129 92 127 
3 120 132 111 
3 111 119 120 
3 122 121 115 
3 122 115 116 
3 133 122 116 
3 133 112 132 
3 116 112 133 
3 112 111 132 
3 124 123 114 
3 123 124 125 
3 121 123 125 
3 125 115 121 
3 127 126 128 
3 128 129 127 
3 141 129 128 
3 129 141 142 
3 108 129 142 
3 142 119 108 
3 120 119 142 
3 131 134 133 
3 132 130 131 
3 133 132 131 
3 130 132 120 
3 134 121 122 
3 122 133 134 
3 136 123 137 
3 114 123 136 
3 123 121 137 
3 139 126 140 
3 126 139 128 
3 135 130 120 
3 135 120 142 
3 136 137 159 
3 121 145 137 
3 145 121 134 
3 138 139 140 
3 128 139 149 
3 149 141 128 
3 153 141 149 
3 142 141 143 
3 150 144 130 
3 130 135 150 
3 143 135 142 
3 146 145 134 
3 146 134 131 
3 144 146 131 
3 131 130 144 
3 137 147 159 
3 147 137 145 
3 152 139 138 
3 139 152 149 
3 148 153 149 
3 141 153 143 
3 135 151 150 
3 151 135 143 
3 146 157 160 
3 145 146 160 
3 157 146 144 
3 160 147 145 
3 240 152 138 
3 149 152 154 
3 155 153 148 
3 154 148 149 
3 153 155 156 
3 143 153 156 
3 150 163 162 
3 144 150 162 
3 150 151 163 
3 156 151 143 
3 174 173 160 
3 160 157 174 
3 162 157 144 
3 159 166 158 
3 166 159 147 
3 173 166 147 
3 147 160 173 
3 168 152 240 
3 167 240 138 
3 152 168 154 
3 156 155 161 
3 162 163 164 
3 151 161 163 
3 161 151 156 
3 157 179 174 
3 164 157 162 
3 179 157 164 
3 165 166 172 
3 158 166 165 
3 166 173 172 
3 241 240 167 
3 186 168 240 
3 154 168 169 
3 181 155 148 
3 169 242 154 
3 155 181 171 
3 161 155 171 
3 164 170 176 
3 164 163 170 
3 161 177 170 
3 163 161 170 
3 177 161 171 
3 173 175 172 
3 173 174 175 
3 186 241 180 
3 170 193 176 
3 170 177 193 
3 174 185 175 
3 179 178 185 
3 174 179 185 
3 176 179 164 
3 178 179 176 
3 169 234 182 
3 181 242 182 
3 171 181 184 
3 184 181 182 
3 176 193 183 
3 184 198 171 
3 175 192 191 
3 172 175 191 
3 185 195 192 
3 175 185 192 
3 185 178 195 
3 186 187 234 
3 182 234 188 
3 182 188 189 
3 189 184 182 
3 177 196 193 
3 198 177 171 
3 196 177 198 
3 178 190 195 
3 183 178 176 
3 190 178 183 
3 199 191 192 
3 234 187 210 
3 210 188 234 
3 198 184 206 
3 206 184 189 
3 193 208 203 
3 183 193 203 
3 193 196 208 
3 195 194 200 
3 192 195 200 
3 190 202 194 
3 195 190 194 
3 203 190 183 
3 200 199 192 
3 196 197 208 
3 207 197 196 
3 198 207 196 
3 206 207 198 
3 200 194 216 
3 201 212 202 
3 203 201 202 
3 201 203 208 
3 188 205 189 
3 205 210 209 
3 188 210 205 
3 206 189 205 
3 206 205 211 
3 206 211 207 
3 194 235 216 
3 194 202 235 
3 208 218 201 
3 208 197 218 
3 209 210 204 
3 211 205 243 
3 211 236 207 
3 236 211 243 
3 201 213 212 
3 201 218 213 
3 197 219 218 
3 214 219 197 
3 207 214 197 
3 236 214 207 
3 218 217 213 
3 218 219 217 
3 214 227 219 
3 223 227 214 
3 236 223 214 
3 235 212 221 
3 235 221 220 
3 212 213 221 
3 221 213 222 
3 213 217 222 
3 217 219 225 
3 225 219 227 
3 227 223 226 
3 221 228 220 
3 221 222 228 
3 217 224 222 
3 225 230 224 
3 217 225 224 
3 226 225 227 
3 230 225 226 
3 222 231 228 
3 224 229 231 
3 222 224 231 
3 229 224 230 
3 228 231 232 
3 31 24 11 
3 25 33 24 
3 32 238 25 
3 49 58 50 
3 233 60 84 
3 169 168 186 
3 186 234 169 
3 210 187 204 
3 202 212 235 
3 243 215 236 
3 215 223 236 
3 62 26 239 
3 25 14 30 
3 28 27 64 
3 32 46 237 
3 79 81 238 
3 81 34 238 
3 62 239 61 
3 186 240 241 
3 242 148 154 
3 242 181 148 
3 242 169 182 
3 202 190 203 
3 205 209 243 
