ply
format ascii 1.0
comment Created by CloudCompare v2.13.2 (Kharkiv - Jul  6 2024)
comment Created 2025-01-09T10:37:29
obj_info Generated by CloudCompare!
element vertex 88
property float x
property float y
property float z
element face 144
property list uchar int vertex_indices
end_header
2.823580 -49.940685 140.998489 
0.844141 -49.954281 140.809097 
-4.396541 -48.136280 140.460663 
-3.791446 -49.600006 141.855621 
-2.720701 -48.954315 140.341080 
-1.020784 -49.635647 140.562698 
-6.253819 -47.213135 141.197159 
-5.401843 -48.838417 142.123734 
-2.054128 -50.296211 142.100143 
-1.201652 -51.078506 144.110153 
-3.372353 -50.731003 144.036591 
1.514206 -50.510353 142.342651 
-0.160530 -50.611416 142.362518 
1.066045 -50.986496 144.244751 
-8.950996 -46.323334 144.617538 
-7.853826 -46.826145 142.979843 
-6.904148 -48.259960 143.231995 
-6.161665 -49.466545 144.226349 
-7.328123 -48.894558 145.222473 
-8.118389 -47.786251 144.839600 
-5.200518 -50.423424 145.290543 
-4.825852 -49.918106 143.346832 
-2.468872 -51.301315 146.099075 
-0.479601 -51.342918 146.267746 
3.175766 -50.437683 142.953918 
4.984390 -50.403023 145.828552 
5.814103 -50.252316 143.660583 
-9.782377 -45.689445 146.032227 
-3.985739 -51.151897 147.773651 
3.280036 -50.697838 145.051315 
5.655412 -49.938896 147.667984 
-4.101860 -51.007866 146.116547 
1.576695 -51.058762 146.630890 
-2.193070 -51.329193 148.501099 
3.551317 -50.586494 147.139923 
3.770616 -50.035423 149.073547 
-10.259537 -45.767365 147.783188 
-9.181337 -47.030655 146.442535 
-8.807262 -48.455780 149.849442 
-6.660987 -49.893299 146.752335 
-8.264107 -48.567307 147.250153 
-7.361034 -49.671822 149.073349 
-5.275306 -50.715263 147.060349 
-4.317975 -50.971088 149.822433 
-1.569315 -50.928696 150.573288 
5.212282 -49.256237 149.414734 
-10.759171 -45.774780 149.929718 
-9.638018 -47.187698 148.670013 
-5.723023 -50.598412 148.617844 
-3.205072 -50.949963 150.788757 
-0.012941 -51.183853 148.466385 
0.324246 -50.610970 150.424164 
1.954166 -50.724907 148.689072 
-10.086969 -47.075836 150.927582 
-7.750401 -49.401337 151.189514 
-4.949775 -50.397961 152.247406 
3.635629 -48.919071 150.895874 
-11.686113 -44.476135 151.173828 
-6.157572 -50.322384 150.596085 
-3.127655 -50.374401 152.629929 
0.626483 -49.855560 151.773270 
-1.175261 -50.000885 152.561859 
2.071488 -50.018154 150.501709 
1.747644 -49.219566 151.910248 
-12.048590 -44.510960 153.360275 
-11.182539 -45.702061 152.134201 
-10.443066 -46.852520 153.117798 
-9.163462 -48.211746 152.055939 
-7.990316 -49.040363 153.201309 
-9.431032 -47.839226 154.200882 
-6.682651 -49.875542 152.317123 
-6.508051 -49.516251 154.085876 
-1.534188 -48.731918 154.572464 
0.270989 -48.966690 153.162827 
-12.269861 -44.459808 155.128983 
-6.493062 -48.712040 156.188141 
-4.639719 -49.504456 154.732010 
-11.518614 -45.531380 154.281372 
-11.852247 -45.121437 156.210114 
-9.601229 -47.310204 156.382919 
-2.840889 -49.523273 154.205978 
-3.282863 -48.527756 155.810181 
-10.751394 -46.471542 155.293213 
-10.965750 -45.975342 157.390228 
-4.958261 -48.242874 156.895920 
-6.524087 -47.713520 158.018646 
-8.083750 -48.532055 155.278000 
-8.064522 -47.809311 157.341309 
3 6 2 7 
3 2 4 3 
3 7 2 3 
3 4 5 8 
3 3 4 8 
3 12 8 5 
3 1 12 5 
3 12 1 11 
3 1 0 11 
3 16 15 6 
3 7 16 6 
3 0 24 11 
3 16 7 17 
3 7 3 21 
3 17 7 21 
3 3 8 10 
3 21 3 10 
3 9 8 12 
3 10 8 9 
3 13 12 11 
3 9 12 13 
3 11 24 13 
3 15 16 19 
3 14 15 19 
3 16 17 18 
3 16 18 19 
3 20 17 21 
3 10 31 20 
3 10 20 21 
3 22 10 9 
3 31 10 22 
3 22 9 23 
3 23 9 13 
3 13 24 29 
3 26 25 29 
3 26 29 24 
3 27 14 37 
3 37 14 19 
3 39 18 17 
3 32 23 13 
3 32 13 29 
3 37 19 40 
3 39 20 42 
3 42 20 31 
3 28 31 22 
3 34 32 29 
3 34 29 25 
3 34 25 30 
3 36 27 37 
3 42 31 28 
3 33 28 22 
3 33 22 23 
3 50 23 32 
3 33 23 50 
3 50 32 52 
3 52 32 34 
3 35 34 30 
3 36 37 47 
3 47 37 40 
3 47 40 38 
3 40 39 41 
3 38 40 41 
3 39 42 48 
3 41 39 48 
3 48 42 28 
3 48 28 43 
3 43 28 33 
3 44 33 50 
3 52 34 35 
3 45 35 30 
3 46 36 47 
3 38 41 54 
3 41 48 58 
3 54 41 58 
3 58 48 43 
3 49 43 33 
3 49 33 44 
3 51 44 50 
3 51 50 52 
3 51 52 62 
3 62 52 35 
3 46 47 53 
3 53 47 38 
3 53 38 67 
3 54 58 70 
3 58 43 55 
3 55 43 49 
3 60 51 62 
3 62 35 56 
3 56 35 45 
3 65 57 46 
3 65 46 53 
3 67 38 54 
3 70 58 55 
3 59 55 49 
3 59 49 44 
3 59 44 61 
3 61 44 51 
3 51 60 61 
3 63 62 56 
3 60 62 63 
3 64 57 65 
3 65 53 66 
3 66 53 67 
3 67 54 68 
3 68 54 70 
3 73 61 60 
3 73 60 63 
3 77 64 65 
3 77 65 66 
3 66 67 69 
3 69 67 68 
3 69 68 86 
3 71 86 68 
3 71 68 70 
3 71 70 55 
3 76 71 55 
3 76 55 59 
3 59 61 80 
3 76 59 80 
3 80 61 72 
3 72 61 73 
3 74 64 77 
3 77 66 82 
3 82 66 69 
3 86 71 75 
3 75 71 76 
3 78 74 77 
3 78 77 82 
3 82 69 79 
3 79 69 86 
3 75 76 84 
3 81 76 80 
3 84 76 81 
3 80 72 81 
3 78 82 83 
3 83 82 79 
3 79 86 87 
3 75 85 87 
3 75 84 85 
3 18 39 40 
3 18 40 19 
3 87 86 75 
3 39 17 20 
