ply
format ascii 1.0
comment Created by CloudCompare v2.13.2 (Kharkiv - Jul  6 2024)
comment Created 2024-11-28T10:33:27
obj_info Generated by CloudCompare!
element vertex 231
property float x
property float y
property float z
element face 414
property list uchar int vertex_indices
end_header
0.686464 -32.732830 131.965820 
2.615065 -32.618439 131.711212 
6.843145 -32.890110 131.968887 
4.688363 -32.830700 131.689774 
5.756471 -34.514801 132.000061 
0.288238 -34.933613 132.353485 
1.441132 -36.591927 132.266068 
1.887446 -34.438122 132.038300 
2.376883 -41.601887 132.631699 
8.929588 -34.925304 132.877930 
9.298595 -32.975273 132.780289 
10.374073 -34.655647 133.470596 
2.129656 -43.127785 133.169586 
2.596951 -39.900322 132.307800 
8.968916 -37.657509 132.778702 
8.176622 -38.945717 132.442062 
11.658079 -33.569313 134.101410 
5.774970 -44.075188 133.033035 
4.118941 -42.656639 132.656967 
3.661948 -44.001556 133.188370 
6.127974 -42.063099 132.440506 
8.777876 -40.327843 132.616135 
9.194483 -42.115547 132.934875 
7.735863 -43.129768 132.831299 
7.883815 -44.910339 133.482971 
9.122744 -43.775551 133.309662 
10.634195 -43.067490 133.670883 
-0.371755 -37.286922 132.727081 
0.753939 -42.147812 133.189651 
0.749169 -40.666950 132.796890 
7.131129 -36.271877 132.371399 
2.082080 -44.608673 133.940659 
2.502880 -46.199879 135.063797 
11.624805 -37.541161 134.017334 
9.890570 -36.122116 133.285522 
11.815001 -35.461876 134.324371 
4.118074 -45.288300 133.823288 
12.232676 -39.675499 134.196411 
10.159409 -39.074635 133.080078 
10.703104 -40.956875 133.348801 
0.088817 -43.468170 134.089508 
13.259483 -34.305923 135.599609 
13.367073 -36.382786 135.682159 
14.413233 -33.004150 137.253311 
13.828024 -40.415504 135.617386 
13.608400 -38.445053 135.584000 
6.261576 -47.255981 135.237640 
6.181234 -45.884048 133.954285 
9.915215 -45.241310 134.191696 
9.842463 -46.904438 135.267151 
8.190691 -46.543720 134.540939 
11.860367 -44.251667 134.732193 
12.672548 -45.231537 135.805573 
11.357138 -46.133213 135.428146 
13.616240 -43.751305 136.002701 
12.537066 -41.975235 134.551971 
0.428624 -45.159206 135.070816 
4.566986 -46.507385 134.677124 
14.886248 -39.408508 137.259949 
14.984282 -41.243393 137.345169 
14.928308 -42.923378 137.585983 
14.443630 -35.114319 137.401215 
15.277586 -35.758789 139.604645 
15.101715 -33.684986 139.259720 
4.017768 -47.449516 135.948914 
3.239047 -48.367764 137.576996 
8.619410 -47.927414 136.167053 
8.323421 -48.865448 138.008896 
12.623247 -46.604912 136.794388 
13.686562 -45.367146 136.940414 
15.762819 -40.435707 139.317810 
10.910440 -47.576374 136.480621 
12.250879 -47.900829 138.049347 
15.614868 -43.505329 139.613617 
14.738596 -44.554012 138.060547 
2.225595 -47.377579 136.458374 
14.812870 -37.348255 137.669342 
5.918108 -48.399422 137.140717 
9.985605 -49.215698 139.388275 
15.631250 -42.111694 138.992722 
10.350712 -48.554779 137.739777 
0.042014 -48.805000 139.089981 
1.181846 -47.993919 137.662582 
2.067334 -49.168678 139.226685 
15.501448 -38.742287 138.894150 
6.673821 -49.084694 138.735229 
13.006622 -48.157600 139.944748 
14.108627 -46.508919 138.863235 
14.095356 -47.283298 140.850281 
15.258438 -44.951485 139.918381 
16.058840 -42.095726 140.832916 
11.550222 -48.760975 139.163971 
11.534599 -49.177597 141.046707 
15.080423 -34.656151 143.404999 
15.335194 -34.273792 141.518997 
15.938194 -38.622650 142.388885 
4.951920 -49.874390 141.355835 
4.548945 -49.221489 139.219421 
15.910772 -39.112244 140.446960 
15.633385 -37.640648 140.123337 
6.330637 -49.472275 140.049088 
8.048660 -49.412769 139.751816 
2.823580 -49.940685 140.998489 
0.844141 -49.954281 140.809097 
15.530199 -36.353287 142.222153 
14.788227 -35.780025 144.812592 
16.150162 -40.410984 141.643509 
16.006636 -40.405502 143.752243 
9.308096 -49.687523 141.219406 
15.012762 -45.721394 142.974564 
15.775352 -44.043205 141.733810 
14.981703 -45.966721 141.107925 
14.368752 -46.981934 142.198288 
14.247276 -32.304363 145.345840 
14.981539 -33.075905 143.418259 
8.154594 -50.017082 142.765488 
16.090244 -42.106522 142.895660 
13.225334 -48.259537 142.131454 
13.911594 -47.247566 143.708939 
15.539877 -38.983459 144.807098 
15.468258 -37.517452 143.979294 
7.126800 -49.830734 141.475250 
15.326178 -40.425392 145.829590 
10.087961 -49.729462 142.869537 
14.404631 -45.900955 144.795502 
14.544451 -44.778034 145.716858 
15.451128 -43.980125 144.123871 
14.529852 -33.920654 144.808044 
1.514206 -50.510353 142.342651 
1.066045 -50.986496 144.244751 
13.828878 -36.071224 146.724487 
14.465355 -39.020878 147.025284 
14.823513 -37.601288 145.759598 
15.657106 -41.990742 144.891556 
8.426373 -50.020954 144.336288 
10.538540 -49.409660 144.731140 
11.475361 -48.606968 145.723129 
11.712755 -49.168827 143.009491 
12.881020 -47.476448 145.646210 
12.372463 -34.430920 147.908051 
12.109444 -32.319618 148.172791 
3.175766 -50.437683 142.953918 
13.908787 -37.586086 147.255600 
4.984390 -50.403023 145.828552 
5.814103 -50.252316 143.660583 
6.930336 -50.102020 145.821335 
13.801125 -44.510914 147.155411 
14.888153 -43.349468 146.039688 
14.783897 -41.704567 146.771011 
12.469883 -36.360996 148.297485 
13.220737 -39.704796 148.724014 
14.348665 -40.349243 147.477905 
11.248693 -48.117134 146.839523 
9.822823 -48.971039 146.838486 
13.464018 -45.985233 146.515274 
11.020060 -33.059586 148.981812 
3.280036 -50.697838 145.051315 
13.596481 -41.250931 148.399368 
5.655412 -49.938896 147.667984 
8.748655 -49.731258 145.875839 
13.911861 -42.871662 147.733124 
10.162483 -47.880695 148.112350 
11.880642 -47.082283 147.412521 
10.806509 -34.601730 149.072418 
1.576695 -51.058762 146.630890 
3.551317 -50.586494 147.139923 
3.770616 -50.035423 149.073547 
7.818016 -49.483723 147.355820 
8.533140 -48.470612 148.563004 
12.399029 -45.637997 148.078384 
10.713015 -46.556564 148.860382 
10.509785 -35.877617 149.448486 
9.044342 -36.446171 150.395676 
12.972279 -38.179352 148.543915 
11.422737 -39.045715 149.948898 
11.161179 -37.288242 149.553375 
5.212282 -49.256237 149.414734 
6.824929 -48.899513 148.941010 
11.174252 -44.952370 149.456268 
12.714222 -43.971172 148.654251 
12.813438 -42.390633 149.020569 
7.712673 -33.639366 151.686188 
7.938992 -31.927982 152.673355 
8.939241 -34.833229 150.278183 
9.694201 -39.296623 150.903030 
10.114645 -40.667992 150.847366 
1.954166 -50.724907 148.689072 
12.011250 -41.049656 149.809143 
11.567724 -43.085079 149.841644 
9.085543 -47.173119 149.478622 
7.586532 -37.285500 151.351898 
8.117804 -38.821384 151.422592 
9.592726 -38.013741 150.606949 
8.377913 -40.177605 151.544022 
3.635629 -48.919071 150.895874 
5.713773 -48.114830 150.392532 
7.487032 -47.615818 149.929871 
6.430187 -46.625465 151.095551 
10.596203 -42.127506 150.595154 
9.612597 -44.118176 150.648834 
8.262671 -46.091183 150.536545 
9.716970 -45.834934 149.957718 
7.289692 -35.578922 151.421921 
6.365523 -38.139671 152.214905 
8.259764 -41.673168 151.603577 
9.383263 -42.300217 151.116348 
7.307953 -45.064468 151.385773 
6.063950 -36.440956 152.474258 
6.440263 -42.758293 152.261566 
6.024233 -44.410351 152.195251 
7.916773 -43.381790 151.541168 
1.081330 -38.763729 132.461838 
4.371458 -40.903397 132.261185 
6.582942 -40.079731 132.196686 
7.743835 -41.493454 132.500519 
7.676116 -34.344299 132.369324 
2.800666 -35.954735 132.083725 
3.019493 -37.872276 132.131409 
4.452309 -36.215336 132.060120 
3.652725 -34.407288 131.895584 
0.689082 -46.596619 136.264114 
14.056650 -42.025352 136.019547 
12.480505 -48.507378 144.193878 
13.590286 -33.819592 146.501694 
6.615627 -41.078918 152.304337 
6.619276 -39.601875 152.242264 
5.603991 -45.744736 151.974899 
9.543108 -33.097240 150.130325 
4.577895 -39.120354 132.081680 
6.638554 -38.238224 132.187241 
5.009946 -37.611351 132.089508 
3 7 0 1 
3 219 7 1 
3 3 219 1 
3 2 4 3 
3 3 4 219 
3 4 2 215 
3 5 6 27 
3 6 5 7 
3 6 7 216 
3 219 216 7 
3 27 6 211 
3 29 8 28 
3 29 211 13 
3 218 30 230 
3 218 4 30 
3 4 215 30 
3 30 215 9 
3 9 215 10 
3 9 10 11 
3 12 40 28 
3 31 40 12 
3 8 18 12 
3 28 8 12 
3 8 13 212 
3 228 213 212 
3 13 228 212 
3 14 15 229 
3 10 16 11 
3 19 31 12 
3 36 31 19 
3 18 17 19 
3 12 18 19 
3 212 20 18 
3 213 214 20 
3 212 213 20 
3 213 15 21 
3 38 15 14 
3 21 15 38 
3 19 17 36 
3 17 20 23 
3 24 17 23 
3 214 22 23 
3 20 214 23 
3 22 214 21 
3 39 22 21 
3 39 21 38 
3 24 23 25 
3 25 22 26 
3 23 22 25 
3 26 22 39 
3 34 14 30 
3 34 9 11 
3 34 11 35 
3 16 35 11 
3 31 36 32 
3 38 14 33 
3 33 14 34 
3 34 35 33 
3 16 41 35 
3 57 32 36 
3 47 57 36 
3 36 17 47 
3 24 47 17 
3 33 37 38 
3 38 37 39 
3 25 26 48 
3 55 26 39 
3 55 39 37 
3 47 24 50 
3 24 25 48 
3 48 26 51 
3 51 55 54 
3 26 55 51 
3 32 56 31 
3 35 42 33 
3 41 61 42 
3 35 41 42 
3 41 43 61 
3 33 45 37 
3 45 33 42 
3 47 46 57 
3 55 37 44 
3 44 37 45 
3 50 49 66 
3 46 50 66 
3 47 50 46 
3 48 53 49 
3 50 48 49 
3 51 52 53 
3 48 51 53 
3 51 54 52 
3 55 221 54 
3 44 221 55 
3 64 75 32 
3 57 64 32 
3 42 76 45 
3 42 61 76 
3 61 43 63 
3 46 77 64 
3 46 64 57 
3 44 45 58 
3 66 77 46 
3 221 59 60 
3 58 59 44 
3 59 221 44 
3 66 49 71 
3 71 53 68 
3 49 53 71 
3 68 52 69 
3 53 52 68 
3 69 54 74 
3 52 54 69 
3 74 54 60 
3 61 62 76 
3 61 63 62 
3 65 75 64 
3 65 64 77 
3 76 99 84 
3 76 84 58 
3 77 66 67 
3 58 70 59 
3 70 58 84 
3 66 71 80 
3 66 80 67 
3 71 68 72 
3 68 69 87 
3 68 87 72 
3 69 74 87 
3 59 79 60 
3 79 59 70 
3 80 71 72 
3 87 74 89 
3 73 74 60 
3 220 75 82 
3 82 75 65 
3 99 76 62 
3 63 94 62 
3 65 77 97 
3 77 67 85 
3 97 77 85 
3 67 80 78 
3 73 60 79 
3 70 90 79 
3 91 80 72 
3 78 80 91 
3 72 86 91 
3 72 87 86 
3 73 89 74 
3 82 65 83 
3 81 82 83 
3 62 104 99 
3 94 104 62 
3 83 65 97 
3 99 98 84 
3 70 84 98 
3 70 98 106 
3 101 85 67 
3 101 67 78 
3 90 73 79 
3 106 90 70 
3 86 87 88 
3 89 111 87 
3 73 110 89 
3 110 73 90 
3 91 86 92 
3 104 94 93 
3 94 114 93 
3 95 99 104 
3 97 85 100 
3 96 97 100 
3 106 98 95 
3 95 98 99 
3 100 85 101 
3 101 78 108 
3 116 90 106 
3 78 91 92 
3 108 78 92 
3 116 110 90 
3 86 117 92 
3 88 112 117 
3 86 88 117 
3 112 88 111 
3 103 81 83 
3 105 104 93 
3 102 83 97 
3 103 83 102 
3 102 97 96 
3 120 95 104 
3 120 104 105 
3 96 100 121 
3 107 106 95 
3 107 95 119 
3 119 95 120 
3 121 100 101 
3 121 101 108 
3 107 116 106 
3 108 92 123 
3 110 126 109 
3 110 109 111 
3 126 110 116 
3 123 92 137 
3 92 117 137 
3 111 109 112 
3 105 93 127 
3 127 93 114 
3 113 127 114 
3 103 102 128 
3 115 121 108 
3 133 116 107 
3 115 108 123 
3 124 109 126 
3 133 126 116 
3 117 222 137 
3 117 118 222 
3 117 112 118 
3 109 124 118 
3 112 109 118 
3 102 141 128 
3 141 102 96 
3 132 120 105 
3 96 121 144 
3 141 96 144 
3 122 107 119 
3 132 119 120 
3 115 144 121 
3 122 133 107 
3 123 135 134 
3 123 134 115 
3 125 124 126 
3 125 126 147 
3 147 126 133 
3 135 123 137 
3 118 138 222 
3 118 124 138 
3 223 130 105 
3 223 105 127 
3 127 113 223 
3 128 141 129 
3 132 105 130 
3 122 119 131 
3 131 119 132 
3 134 144 115 
3 148 133 122 
3 159 134 135 
3 148 147 133 
3 222 136 135 
3 137 222 135 
3 124 154 138 
3 154 124 125 
3 139 223 140 
3 139 130 223 
3 149 130 139 
3 129 141 156 
3 130 149 142 
3 132 130 142 
3 144 143 156 
3 144 156 141 
3 151 122 131 
3 142 131 132 
3 145 144 134 
3 143 144 145 
3 145 134 159 
3 151 148 122 
3 146 125 147 
3 160 147 148 
3 146 147 160 
3 153 159 135 
3 135 136 153 
3 146 154 125 
3 164 129 156 
3 142 149 173 
3 151 131 150 
3 150 131 173 
3 145 159 167 
3 160 148 157 
3 157 148 151 
3 136 152 153 
3 138 162 152 
3 136 138 152 
3 154 169 162 
3 138 154 162 
3 169 154 146 
3 155 163 139 
3 155 139 140 
3 149 163 171 
3 149 139 163 
3 165 164 156 
3 165 156 143 
3 157 151 150 
3 158 143 145 
3 165 143 158 
3 158 145 167 
3 180 160 157 
3 153 167 159 
3 179 169 146 
3 180 179 160 
3 179 146 160 
3 153 152 161 
3 152 162 161 
3 171 163 183 
3 227 163 155 
3 183 163 227 
3 149 171 175 
3 175 173 149 
3 186 164 165 
3 157 150 187 
3 166 165 158 
3 158 167 177 
3 180 157 187 
3 177 167 168 
3 168 167 153 
3 168 153 161 
3 178 170 169 
3 169 179 178 
3 161 162 170 
3 162 169 170 
3 172 171 183 
3 175 171 172 
3 192 175 172 
3 174 150 173 
3 174 173 175 
3 174 175 192 
3 186 165 166 
3 187 150 174 
3 176 166 158 
3 176 158 177 
3 187 188 180 
3 168 161 189 
3 196 168 189 
3 177 168 196 
3 161 170 189 
3 188 178 179 
3 179 180 188 
3 202 183 181 
3 183 227 181 
3 172 183 202 
3 184 174 192 
3 185 174 184 
3 198 187 185 
3 187 174 185 
3 177 195 176 
3 195 177 196 
3 198 188 187 
3 170 201 189 
3 201 170 178 
3 199 201 178 
3 178 188 199 
3 190 172 202 
3 192 172 190 
3 191 192 190 
3 193 185 184 
3 193 184 191 
3 184 192 191 
3 204 185 193 
3 205 198 185 
3 194 166 176 
3 194 176 195 
3 195 196 197 
3 196 200 197 
3 198 199 188 
3 205 199 198 
3 196 189 200 
3 189 201 200 
3 201 199 200 
3 190 202 207 
3 203 190 207 
3 225 191 203 
3 191 190 203 
3 204 210 205 
3 205 185 204 
3 200 206 197 
3 206 200 199 
3 210 206 199 
3 199 205 210 
3 224 208 204 
3 204 193 224 
3 208 209 210 
3 210 204 208 
3 226 206 209 
3 197 206 226 
3 206 210 209 
3 29 13 8 
3 217 228 13 
3 211 217 13 
3 8 212 18 
3 229 15 213 
3 228 229 213 
3 14 229 30 
3 18 20 17 
3 213 21 214 
3 10 215 2 
3 211 6 217 
3 6 216 217 
3 218 216 219 
3 218 219 4 
3 24 48 50 
3 56 40 31 
3 220 32 75 
3 220 56 32 
3 58 45 76 
3 60 54 221 
3 89 110 111 
3 222 138 136 
3 173 131 142 
3 193 191 225 
3 224 193 225 
3 230 30 229 
3 9 34 30 
3 111 88 87 
3 228 230 229 
3 217 230 228 
3 230 217 218 
3 7 5 0 
3 216 218 217 
