ply
format ascii 1.0
comment Created by CloudCompare v2.13.2 (Kharkiv - Jul  6 2024)
comment Created 2024-11-28T10:38:53
obj_info Generated by CloudCompare!
element vertex 101
property float x
property float y
property float z
property uchar red
property uchar green
property uchar blue
element face 166
property list uchar int vertex_indices
end_header
15.616726 -33.428364 139.118210 255 255 0 
15.233768 -31.764294 133.184540 255 255 0 
14.969565 -32.520302 135.433640 255 255 0 
14.753456 -33.559956 129.490555 255 255 0 
15.254654 -32.270050 130.501068 255 255 0 
14.627785 -33.188206 133.665695 255 255 0 
14.612949 -34.926464 133.032410 255 255 0 
14.680681 -34.184258 135.139114 255 255 0 
14.968199 -33.658298 137.174255 255 255 0 
14.514893 -34.984001 130.520355 255 255 0 
14.600861 -33.303902 131.636505 255 255 0 
15.189830 -34.582687 138.558105 255 255 0 
15.647206 -34.885971 140.270462 255 255 0 
15.699200 -36.687576 140.699066 255 255 0 
17.148043 -37.350025 143.508301 255 255 0 
16.396479 -35.895023 142.242538 255 255 0 
14.953873 -35.220375 136.921158 255 255 0 
15.621904 -37.760548 138.800751 255 255 0 
15.305135 -35.981720 138.791458 255 255 0 
15.334905 -36.821472 136.960114 255 255 0 
14.537157 -35.058578 128.631897 255 255 0 
14.635989 -36.359840 129.597137 255 255 0 
15.815918 -38.624344 136.858902 255 255 0 
14.876616 -35.524094 127.029366 255 255 0 
14.561864 -36.845387 128.157898 255 255 0 
14.912189 -36.751522 131.584564 255 255 0 
15.006143 -37.893753 129.667465 255 255 0 
15.087474 -36.620464 133.672516 255 255 0 
15.613581 -38.254856 133.392059 255 255 0 
14.640347 -37.780453 126.574463 255 255 0 
14.889261 -38.728111 128.277130 255 255 0 
15.457622 -39.385719 129.782562 255 255 0 
16.182299 -40.212059 132.951462 255 255 0 
16.048647 -39.421135 134.923126 255 255 0 
16.394815 -42.353237 132.515961 255 255 0 
16.469461 -41.527622 134.503098 255 255 0 
15.854517 -38.667168 140.521591 255 255 0 
16.260752 -40.066921 142.057938 255 255 0 
16.353584 -38.021111 142.596954 255 255 0 
17.054041 -40.105091 143.730942 255 255 0 
14.983253 -38.227215 124.924690 255 255 0 
16.201511 -41.943127 139.448853 255 255 0 
16.027697 -39.969643 138.545792 255 255 0 
16.051600 -40.410923 140.310257 255 255 0 
14.802563 -39.981472 125.334618 255 255 0 
14.993556 -41.683880 126.618843 255 255 0 
14.915424 -39.962788 127.320137 255 255 0 
16.497141 -42.449299 135.900101 255 255 0 
16.338371 -42.010036 137.565109 255 255 0 
16.255262 -40.605801 136.389694 255 255 0 
15.211829 -41.330784 123.949867 255 255 0 
15.496230 -41.890163 128.343369 255 255 0 
15.551386 -40.509434 129.093231 255 255 0 
15.935214 -40.692638 130.966675 255 255 0 
15.951363 -44.563126 130.336639 255 255 0 
15.706214 -43.847301 128.960861 255 255 0 
16.043030 -42.598141 130.317459 255 255 0 
16.217249 -44.430229 132.013718 255 255 0 
16.401342 -43.831772 136.786530 255 255 0 
16.380123 -43.670208 140.376770 255 255 0 
16.342894 -41.961452 141.380249 255 255 0 
17.053865 -42.127712 143.381210 255 255 0 
15.019437 -42.313808 124.840782 255 255 0 
16.306166 -43.420277 138.606461 255 255 0 
16.634842 -45.106785 140.952393 255 255 0 
15.253940 -43.430119 127.408669 255 255 0 
16.529655 -43.898483 134.416489 255 255 0 
16.303820 -45.563046 136.040344 255 255 0 
15.035284 -43.278618 125.925514 255 255 0 
15.295032 -45.470974 127.679665 255 255 0 
15.643405 -45.515221 129.391342 255 255 0 
15.862385 -46.104630 130.979095 255 255 0 
16.306435 -45.130882 138.802261 255 255 0 
16.317192 -47.036110 137.803177 255 255 0 
17.371622 -45.809570 142.322006 255 255 0 
15.210795 -44.144318 124.503433 255 255 0 
16.163172 -47.142273 135.659729 255 255 0 
16.133568 -46.273861 133.585220 255 255 0 
17.374693 -47.537342 141.186600 255 255 0 
15.610131 -45.752773 124.408966 255 255 0 
15.341351 -46.417061 125.645866 255 255 0 
15.135393 -44.807213 125.896347 255 255 0 
16.334618 -48.803429 136.677383 255 255 0 
15.345523 -47.063702 127.141037 255 255 0 
15.793340 -47.679924 131.757874 255 255 0 
15.474715 -47.274776 129.202713 255 255 0 
16.639412 -50.549076 135.479034 255 255 0 
16.922031 -48.704494 139.118134 255 255 0 
15.686381 -48.552979 127.476166 255 255 0 
15.801518 -49.347397 129.255646 255 255 0 
15.864655 -49.236481 132.260925 255 255 0 
16.270267 -50.286869 133.770279 255 255 0 
15.995481 -48.584003 134.243027 255 255 0 
15.662420 -48.560486 130.676773 255 255 0 
16.441414 -50.863209 132.591766 255 255 0 
15.968756 -49.987240 130.973969 255 255 0 
15.548826 -38.903744 131.405228 255 255 0 
16.802103 -43.838619 142.200363 255 255 0 
16.667667 -46.624935 140.191849 255 255 0 
15.501825 -37.568863 135.171021 255 255 0 
14.968659 -35.860840 135.080444 255 255 0 
3 10 5 1 
3 10 1 4 
3 2 1 5 
3 5 10 6 
3 7 5 6 
3 2 5 7 
3 8 2 7 
3 11 0 8 
3 12 0 11 
3 3 9 10 
3 4 3 10 
3 6 10 9 
3 100 7 6 
3 7 100 16 
3 7 16 8 
3 11 8 16 
3 11 16 18 
3 12 11 18 
3 12 18 13 
3 15 12 13 
3 15 13 38 
3 38 14 15 
3 9 3 20 
3 19 16 100 
3 17 18 19 
3 13 18 17 
3 24 20 23 
3 21 20 24 
3 9 20 21 
3 25 9 21 
3 6 9 25 
3 27 6 25 
3 100 6 27 
3 22 19 99 
3 22 17 19 
3 17 36 13 
3 38 13 36 
3 23 29 24 
3 26 21 24 
3 25 21 26 
3 96 25 26 
3 27 25 28 
3 22 99 33 
3 42 17 22 
3 24 29 30 
3 26 24 30 
3 26 30 31 
3 96 26 31 
3 53 96 31 
3 32 28 96 
3 33 35 49 
3 33 49 22 
3 22 49 42 
3 30 52 31 
3 53 31 52 
3 34 32 53 
3 35 32 34 
3 47 49 35 
3 34 53 56 
3 35 34 66 
3 35 66 47 
3 38 36 37 
3 39 38 37 
3 42 36 17 
3 43 36 42 
3 37 36 43 
3 39 37 61 
3 29 40 44 
3 46 29 44 
3 30 29 46 
3 42 41 43 
3 42 48 41 
3 49 48 42 
3 43 41 60 
3 43 60 37 
3 61 37 60 
3 46 44 45 
3 46 45 51 
3 52 46 51 
3 30 46 52 
3 56 52 51 
3 47 48 49 
3 48 47 58 
3 51 45 65 
3 65 55 51 
3 51 55 56 
3 52 56 53 
3 54 56 55 
3 34 56 57 
3 47 66 58 
3 57 56 54 
3 57 54 71 
3 66 34 57 
3 59 60 41 
3 97 60 59 
3 61 60 97 
3 62 44 50 
3 45 44 62 
3 63 48 58 
3 41 63 59 
3 48 63 41 
3 59 64 97 
3 64 74 97 
3 45 62 68 
3 65 45 68 
3 67 58 66 
3 58 67 72 
3 58 72 63 
3 59 63 72 
3 59 72 64 
3 68 62 75 
3 70 54 55 
3 69 55 65 
3 70 55 69 
3 54 70 71 
3 57 71 77 
3 77 76 67 
3 77 67 66 
3 77 66 57 
3 73 72 67 
3 98 72 73 
3 64 72 98 
3 81 75 79 
3 68 75 81 
3 70 69 85 
3 71 70 85 
3 92 76 77 
3 76 73 67 
3 78 98 87 
3 79 80 81 
3 69 81 80 
3 71 85 84 
3 77 71 84 
3 77 84 92 
3 82 76 92 
3 73 76 82 
3 87 73 82 
3 98 73 87 
3 85 69 83 
3 84 85 93 
3 90 92 84 
3 93 90 84 
3 82 92 86 
3 88 89 85 
3 93 85 89 
3 92 90 91 
3 86 92 91 
3 93 89 95 
3 95 94 90 
3 93 95 90 
3 91 90 94 
3 28 25 96 
3 99 27 28 
3 33 99 28 
3 32 96 53 
3 33 28 32 
3 35 33 32 
3 18 16 19 
3 65 81 69 
3 81 65 68 
3 98 78 74 
3 64 98 74 
3 83 69 80 
3 85 83 88 
3 100 99 19 
3 100 27 99 
