ply
format ascii 1.0
comment Created by CloudCompare v2.13.2 (Kharkiv - Jul  6 2024)
comment Created 2024-12-03T10:03:29
obj_info Generated by CloudCompare!
element vertex 113
property float x
property float y
property float z
element face 183
property list uchar int vertex_indices
end_header
237.375580 -31.332977 126.310387 
236.479797 -30.744678 125.244843 
237.358612 -32.353935 124.973953 
237.732849 -31.279251 127.792168 
238.037781 -33.002945 126.566002 
240.930634 -40.704395 118.054268 
239.146423 -33.459423 132.484512 
237.256210 -33.360588 123.672974 
239.507874 -35.032417 131.168716 
237.935516 -34.184242 124.936066 
238.416016 -36.095951 124.791740 
238.556885 -35.200237 127.032845 
240.008362 -36.908821 131.593811 
240.585693 -38.624611 133.825607 
238.334152 -36.486488 122.796936 
239.186371 -36.747116 128.314606 
238.979950 -37.509624 126.610535 
240.195770 -38.572617 130.323700 
240.515945 -38.486870 132.102722 
240.356339 -39.841526 129.338440 
240.555115 -39.643730 117.700447 
241.405029 -41.834789 119.315247 
240.980469 -40.100227 132.624084 
240.603271 -39.883804 130.572845 
240.852966 -40.169434 134.316574 
238.485260 -36.799877 121.303070 
239.404327 -38.196842 120.536461 
239.011856 -38.048717 122.309059 
239.550674 -39.389492 126.555748 
240.188782 -40.245262 128.266632 
240.472992 -40.692501 129.227509 
240.490112 -40.356598 129.320313 
239.860596 -39.694412 121.734001 
240.527802 -40.227417 120.061752 
240.252319 -39.218727 119.123047 
241.757813 -43.753006 122.082344 
241.963318 -43.085907 118.528809 
242.232727 -43.533020 120.071671 
243.749832 -47.013054 121.160713 
243.238480 -45.525883 119.894608 
239.515472 -39.353786 123.240379 
241.224518 -43.269409 129.212952 
241.422852 -41.837109 133.907623 
241.348206 -41.702045 132.175415 
242.160217 -43.893982 134.107773 
240.206161 -40.952431 123.094025 
240.501373 -42.199913 125.085007 
240.944809 -42.542526 123.002785 
241.121567 -43.822746 126.092087 
242.796188 -45.422108 134.411285 
242.730652 -45.454735 132.477722 
241.909790 -43.367493 132.377533 
240.983612 -41.763866 121.252312 
242.413513 -45.374847 123.192993 
242.301605 -46.213551 127.883942 
241.974335 -44.654572 130.137268 
241.505127 -44.468616 127.836700 
243.365280 -47.176769 131.623001 
242.785965 -45.275940 121.422104 
243.146500 -47.025108 124.005646 
243.196442 -46.559849 122.456833 
242.943878 -47.581577 128.234665 
243.138519 -47.474689 129.908066 
242.718353 -46.474350 129.954605 
243.703354 -47.165081 133.876740 
245.084778 -49.273193 134.140900 
244.076294 -48.208836 135.566040 
245.202515 -49.924801 135.671005 
244.719742 -50.284588 124.081810 
243.859070 -48.613400 124.455124 
246.414856 -51.064438 134.370712 
240.739410 -42.755928 127.537010 
243.488068 -48.409679 129.297333 
243.618164 -48.054741 130.817276 
243.085663 -47.724373 126.006416 
246.020569 -50.679100 132.611130 
245.374756 -51.387360 125.986145 
244.237747 -49.627617 125.806885 
246.259796 -52.228188 127.722694 
247.464066 -52.286995 132.735641 
248.266022 -53.497711 130.955460 
248.350616 -54.752312 129.237015 
244.441940 -49.799255 129.135620 
244.436691 -48.783085 132.216095 
244.138062 -49.011925 130.565704 
244.913361 -50.620480 127.526031 
243.668213 -48.974121 127.505913 
245.298126 -50.341904 130.858551 
246.860123 -51.948334 130.968307 
247.335388 -52.981998 129.270615 
245.869949 -55.456837 137.582855 
237.705643 -34.809185 123.155472 
239.628281 -36.849747 129.900253 
239.742523 -38.679680 128.453537 
247.256012 -53.647667 127.934799 
238.577606 -33.151260 128.535721 
238.950714 -33.073517 130.593033 
239.112396 -34.949936 129.321762 
240.222504 -36.915306 133.207718 
239.817444 -35.432816 132.536438 
239.544495 -35.138554 133.682953 
240.886124 -41.002674 130.844299 
240.145370 -41.073441 127.197792 
239.726776 -40.156200 124.829483 
240.714310 -41.805691 129.186890 
241.338318 -42.643204 130.761093 
241.474548 -43.928646 124.137924 
242.088181 -45.608944 125.515770 
245.890335 -51.372990 129.255127 
246.383820 -53.125748 126.374039 
238.067719 -31.261127 129.636978 
239.026321 -38.117279 124.424271 
243.993515 -48.327457 122.745689 
3 2 1 0 
3 2 0 4 
3 4 3 95 
3 0 3 4 
3 3 110 95 
3 9 2 4 
3 7 2 9 
3 4 95 11 
3 4 11 9 
3 95 97 11 
3 8 97 96 
3 9 10 91 
3 7 9 91 
3 9 11 10 
3 97 15 11 
3 97 8 92 
3 99 98 12 
3 14 91 10 
3 111 14 10 
3 10 11 16 
3 111 10 16 
3 15 93 16 
3 11 15 16 
3 17 92 12 
3 18 17 12 
3 23 17 18 
3 18 98 13 
3 12 98 18 
3 25 14 27 
3 27 14 111 
3 111 16 28 
3 28 93 29 
3 16 93 28 
3 93 17 19 
3 29 93 19 
3 19 17 23 
3 33 34 26 
3 20 34 5 
3 18 22 23 
3 18 13 22 
3 24 22 13 
3 26 25 27 
3 26 27 32 
3 103 40 111 
3 103 111 28 
3 28 29 102 
3 28 102 103 
3 102 30 104 
3 29 30 102 
3 31 30 29 
3 31 23 30 
3 19 23 31 
3 101 30 23 
3 22 101 23 
3 22 42 43 
3 42 22 24 
3 33 26 32 
3 52 33 32 
3 19 31 29 
3 33 5 34 
3 21 33 52 
3 37 36 21 
3 52 37 21 
3 35 37 52 
3 58 37 35 
3 39 37 58 
3 38 39 58 
3 32 40 45 
3 32 45 52 
3 103 46 45 
3 71 46 102 
3 41 104 105 
3 42 51 43 
3 44 51 42 
3 45 46 47 
3 48 46 71 
3 106 46 48 
3 71 41 56 
3 51 50 55 
3 41 105 55 
3 44 49 50 
3 51 44 50 
3 47 106 35 
3 45 47 52 
3 35 106 53 
3 48 107 106 
3 54 107 56 
3 55 63 54 
3 56 55 54 
3 41 55 56 
3 63 55 50 
3 57 63 50 
3 50 49 64 
3 57 50 64 
3 58 35 53 
3 58 53 60 
3 53 59 60 
3 74 107 54 
3 61 74 54 
3 61 63 62 
3 54 63 61 
3 62 63 57 
3 57 64 83 
3 64 66 65 
3 83 64 65 
3 67 65 66 
3 38 58 60 
3 38 60 112 
3 74 69 59 
3 59 69 112 
3 59 112 60 
3 75 65 70 
3 65 67 70 
3 69 68 112 
3 77 68 69 
3 76 68 77 
3 75 70 79 
3 48 71 56 
3 56 107 48 
3 86 74 61 
3 62 72 61 
3 73 72 62 
3 57 73 62 
3 83 73 57 
3 74 86 77 
3 69 74 77 
3 87 83 75 
3 75 83 65 
3 85 76 77 
3 78 76 85 
3 108 78 85 
3 88 87 75 
3 88 75 79 
3 78 109 76 
3 108 89 78 
3 88 80 89 
3 88 79 80 
3 89 80 81 
3 86 72 82 
3 61 72 86 
3 72 73 84 
3 72 84 82 
3 83 84 73 
3 84 87 82 
3 87 84 83 
3 85 77 86 
3 85 86 82 
3 87 108 82 
3 108 87 88 
3 89 108 88 
3 6 99 8 
3 96 6 8 
3 97 92 15 
3 8 99 12 
3 92 17 93 
3 15 92 93 
3 89 81 94 
3 78 89 94 
3 110 96 95 
3 95 96 97 
3 100 98 99 
3 6 100 99 
3 102 104 71 
3 22 43 101 
3 21 5 33 
3 102 46 103 
3 71 104 41 
3 104 101 105 
3 101 104 30 
3 43 105 101 
3 43 51 105 
3 47 46 106 
3 105 51 55 
3 59 107 74 
3 107 53 106 
3 53 107 59 
3 82 108 85 
3 8 12 92 
3 94 109 78 
3 27 40 32 
3 40 27 111 
3 40 103 45 
3 47 35 52 
