ply
format ascii 1.0
comment Created by CloudCompare v2.13.2 (Kharkiv - Jul  6 2024)
comment Created 2024-11-28T10:49:57
obj_info Generated by CloudCompare!
element vertex 59
property float x
property float y
property float z
property uchar red
property uchar green
property uchar blue
property float nx
property float ny
property float nz
element face 91
property list uchar int vertex_indices
end_header
237.375198 -31.333021 126.310097 255 170 0 0.824117 0.472494 -0.312380 
236.479401 -30.744736 125.244560 255 170 0 0.604883 0.664872 -0.438249 
237.358261 -32.353958 124.973633 255 170 0 0.851217 0.393707 -0.347023 
238.037445 -33.002968 126.565674 255 170 0 0.913948 0.306587 -0.265902 
234.328156 -35.264629 116.623566 255 170 0 0.365411 0.899586 -0.239205 
235.163635 -29.628397 125.922440 255 170 0 0.193773 0.874196 -0.445234 
236.391678 -32.012871 123.685196 255 170 0 0.638569 0.584653 -0.500409 
237.255890 -33.360592 123.672653 255 170 0 0.835995 0.410913 -0.363681 
235.503403 -34.168907 120.303993 255 170 0 0.409343 0.764868 -0.497409 
237.935211 -34.184242 124.935730 255 170 0 0.909278 0.316715 -0.270010 
232.826859 -34.935467 116.111046 255 170 0 0.193992 0.921816 -0.335592 
232.780670 -34.501534 117.276962 255 170 0 0.221212 0.939107 -0.262950 
233.924149 -34.664108 118.393364 255 170 0 0.361402 0.865827 -0.346023 
236.902374 -35.999695 118.228966 255 170 0 0.434831 0.849545 -0.298656 
236.586121 -35.177925 119.673134 255 170 0 0.495044 0.777463 -0.387920 
238.117569 -36.343884 120.042534 255 170 0 0.621872 0.715557 -0.318205 
237.510986 -35.138367 121.370552 255 170 0 0.647501 0.663977 -0.374002 
233.717117 -30.593401 124.174141 255 170 0 -0.051818 0.833295 -0.550395 
235.387833 -32.056694 122.706032 255 170 0 0.384539 0.684909 -0.618894 
236.513367 -33.383369 122.252129 255 170 0 0.633161 0.602931 -0.485368 
233.999283 -29.273468 127.430298 255 170 0 -0.030490 0.967129 -0.252453 
234.092270 -31.720224 122.669456 255 170 0 0.041092 0.760911 -0.647554 
234.842682 -32.912365 121.593170 255 170 0 0.240302 0.749175 -0.617245 
235.202393 -30.942570 123.982216 255 170 0 0.294370 0.768544 -0.568054 
233.037796 -32.948547 121.407578 255 170 0 -0.094186 0.804200 -0.586849 
230.372803 -34.383842 116.744789 255 170 0 0.017452 0.980788 -0.194296 
232.622437 -34.226135 118.450432 255 170 0 0.162965 0.940814 -0.297171 
232.081589 -30.934155 124.317360 255 170 0 -0.324022 0.814007 -0.482082 
233.794464 -33.782280 120.048172 255 170 0 0.093167 0.894123 -0.438023 
232.317993 -33.956295 119.870850 255 170 0 -0.136421 0.954945 -0.263570 
233.228287 -29.723249 125.797340 255 170 0 -0.156163 0.895431 -0.416913 
231.212097 -32.043861 123.242798 255 170 0 -0.338753 0.785072 -0.518565 
232.560928 -31.793581 122.889061 255 170 0 -0.201780 0.774772 -0.599177 
231.250061 -32.868408 122.067238 255 170 0 -0.251559 0.795302 -0.551555 
228.937225 -34.709259 116.871841 255 170 0 -0.317711 0.948187 -0.001236 
229.472885 -34.531143 118.641472 255 170 0 -0.297862 0.953913 -0.036447 
230.524078 -31.746408 124.334244 255 170 0 -0.477098 0.795164 -0.374289 
230.056976 -31.549282 125.666870 255 170 0 -0.536155 0.787527 -0.303874 
231.498489 -30.491213 125.826202 255 170 0 -0.444907 0.814866 -0.371553 
231.214630 -33.879837 120.534271 255 170 0 -0.227097 0.898133 -0.376542 
227.775040 -35.401192 116.803268 255 170 0 -0.442343 0.891663 -0.096283 
228.794556 -32.852715 124.487709 255 170 0 -0.502563 0.815686 -0.286508 
228.001663 -33.708931 123.069778 255 170 0 -0.455740 0.845051 -0.279624 
229.679840 -32.946369 122.868248 255 170 0 -0.391095 0.815712 -0.426214 
229.484589 -34.660091 119.722672 255 170 0 -0.330275 0.936904 -0.114585 
227.419922 -35.257881 118.627090 255 170 0 -0.411010 0.909612 -0.060641 
228.220123 -35.051838 119.882706 255 170 0 -0.336353 0.924620 -0.178732 
226.364944 -36.193745 117.304283 255 170 0 -0.643792 0.744719 -0.175858 
227.981781 -34.250957 121.919739 255 170 0 -0.365373 0.842083 -0.396735 
227.625580 -34.976757 120.664268 255 170 0 -0.317350 0.885873 -0.338406 
226.185562 -35.897045 119.170792 255 170 0 -0.505730 0.846839 -0.164622 
226.986862 -34.119629 124.012772 255 170 0 -0.510532 0.839908 -0.184151 
226.241211 -34.861546 122.384293 255 170 0 -0.428195 0.857924 -0.283928 
226.096786 -35.507744 120.747932 255 170 0 -0.352118 0.881052 -0.315849 
225.751144 -37.255577 117.551971 255 170 0 -0.871167 0.465498 -0.156139 
237.705353 -34.809166 123.155136 255 170 0 0.842968 0.459379 -0.279958 
236.634384 -30.059723 127.084709 255 170 0 0.612366 0.722236 -0.321532 
229.528381 -34.043671 121.157616 255 170 0 -0.302235 0.844707 -0.441728 
230.991302 -34.184265 118.373444 255 170 0 -0.120277 0.989074 -0.085245 
3 0 1 56 
3 2 1 0 
3 2 0 3 
3 23 5 1 
3 1 5 56 
3 6 23 1 
3 6 1 2 
3 6 7 19 
3 7 6 2 
3 9 2 3 
3 7 2 9 
3 26 12 11 
3 8 12 26 
3 14 12 8 
3 8 19 16 
3 19 7 55 
3 7 9 55 
3 4 10 11 
3 4 11 12 
3 4 12 13 
3 14 15 13 
3 14 13 12 
3 15 14 16 
3 5 23 17 
3 23 6 18 
3 18 6 19 
3 18 19 22 
3 8 26 28 
3 22 19 8 
3 22 8 28 
3 30 5 17 
3 5 30 20 
3 21 18 22 
3 23 18 21 
3 23 21 17 
3 22 28 24 
3 21 22 24 
3 25 26 11 
3 58 26 25 
3 25 11 10 
3 27 30 17 
3 24 28 29 
3 34 58 25 
3 28 58 29 
3 38 30 27 
3 27 17 32 
3 32 21 24 
3 32 17 21 
3 58 35 29 
3 27 32 31 
3 33 32 24 
3 31 32 33 
3 24 29 39 
3 24 39 33 
3 34 40 35 
3 35 44 39 
3 35 39 29 
3 36 38 27 
3 37 38 36 
3 36 27 31 
3 35 40 45 
3 44 35 45 
3 36 31 43 
3 57 43 33 
3 33 43 31 
3 39 44 57 
3 39 57 33 
3 40 47 45 
3 41 37 36 
3 41 43 42 
3 41 36 43 
3 57 44 46 
3 49 57 46 
3 46 44 45 
3 49 46 50 
3 47 50 45 
3 45 50 46 
3 50 47 54 
3 53 52 48 
3 53 49 50 
3 8 16 14 
3 19 55 16 
3 58 34 35 
3 48 43 57 
3 48 57 49 
3 58 28 26 
3 42 43 48 
3 51 41 42 
3 48 49 53 
3 52 42 48 
3 42 52 51 
