ply
format ascii 1.0
comment Created by CloudCompare v2.13.2 (Kharkiv - Jul  6 2024)
comment Created 2024-12-03T10:21:28
obj_info Generated by CloudCompare!
element vertex 35
property float x
property float y
property float z
element face 49
property list uchar int vertex_indices
end_header
237.948853 -19.374260 118.944405 
239.011414 -23.522457 113.609093 
238.483902 -21.581516 114.063667 
238.324875 -20.677969 116.966301 
238.562576 -23.879002 117.064049 
238.531982 -22.393799 116.467064 
238.605576 -25.540331 117.419159 
238.528610 -22.067577 117.930313 
238.442810 -21.330551 119.229828 
238.628036 -23.539841 118.849777 
237.992111 -20.536194 120.747543 
238.483643 -22.264385 120.321579 
238.611069 -24.079542 120.721931 
238.924744 -25.079895 112.664810 
238.551743 -22.907219 114.917953 
238.256027 -20.897188 115.390793 
238.511017 -23.962492 115.752037 
238.509628 -25.020596 114.287109 
238.055634 -27.049366 114.399498 
238.488937 -25.473070 115.804749 
238.685516 -25.439348 119.028618 
238.031219 -22.066685 121.846336 
238.439407 -27.246307 116.055618 
238.519257 -27.438482 118.217064 
238.291779 -25.262327 122.082787 
238.011063 -23.511545 122.532814 
237.970642 -29.196310 116.601608 
238.609772 -26.352905 120.308922 
238.098831 -28.458706 120.252136 
237.741379 -26.197346 123.064140 
238.059341 -19.545822 117.359016 
238.350769 -20.576223 118.179993 
238.277542 -26.924364 121.623611 
237.574905 -28.002628 122.266991 
237.953781 -29.350769 118.345406 
3 3 7 5 
3 15 3 5 
3 0 31 30 
3 7 31 8 
3 0 10 8 
3 4 16 5 
3 6 19 4 
3 7 9 4 
3 5 7 4 
3 8 11 9 
3 7 8 9 
3 11 8 10 
3 21 11 10 
3 4 9 6 
3 9 11 12 
3 12 11 21 
3 2 14 1 
3 15 14 2 
3 17 13 1 
3 17 1 14 
3 14 15 5 
3 14 5 16 
3 14 16 17 
3 17 19 18 
3 19 17 16 
3 19 16 4 
3 18 19 22 
3 22 19 6 
3 22 6 23 
3 6 9 20 
3 6 20 23 
3 9 12 20 
3 21 25 12 
3 22 23 26 
3 23 20 27 
3 27 12 24 
3 20 12 27 
3 24 12 25 
3 26 23 34 
3 23 27 28 
3 24 32 27 
3 24 29 32 
3 7 3 31 
3 30 31 3 
3 31 0 8 
3 28 32 33 
3 32 28 27 
3 32 29 33 
3 23 28 34 
