ply
format ascii 1.0
comment Created by CloudCompare v2.13.2 (Kharkiv - Jul  6 2024)
comment Created 2024-12-03T10:21:18
obj_info Generated by CloudCompare!
element vertex 20
property float x
property float y
property float z
element face 26
property list uchar int vertex_indices
end_header
239.723022 -21.987257 108.252106 
239.260040 -20.201069 108.853203 
240.644684 -20.926228 109.546158 
239.172623 -23.705585 108.375877 
240.769028 -22.674971 109.351486 
240.747467 -23.473024 110.898872 
239.557266 -19.718857 111.716660 
241.203796 -21.796801 110.836998 
240.575409 -20.926332 111.954300 
239.546890 -24.815378 111.062302 
239.956131 -24.149429 109.697624 
240.560165 -22.285780 112.154305 
238.677338 -19.602524 112.383446 
239.692184 -20.767321 112.726646 
239.909866 -23.747074 112.361687 
239.011414 -23.522457 113.609093 
239.417618 -22.176384 113.145126 
238.924744 -25.079895 112.664810 
240.542084 -20.321146 110.944298 
239.340134 -19.435759 110.253517 
3 7 2 18 
3 0 1 2 
3 2 1 19 
3 3 0 4 
3 4 0 2 
3 18 6 8 
3 7 5 4 
3 2 7 4 
3 7 18 8 
3 10 3 4 
3 4 5 10 
3 7 11 5 
3 11 7 8 
3 6 12 13 
3 8 6 13 
3 13 11 8 
3 9 5 14 
3 10 5 9 
3 14 5 11 
3 14 11 16 
3 16 11 13 
3 14 17 9 
3 15 14 16 
3 15 17 14 
3 2 19 18 
3 19 6 18 
